<?xml version="1.0" encoding="utf-8" standalone="no"?>
<!DOCTYPE svg PUBLIC "-//W3C//DTD SVG 1.1//EN"
  "http://www.w3.org/Graphics/SVG/1.1/DTD/svg11.dtd">
<!-- Created with matplotlib (http://matplotlib.org/) -->
<svg height="720pt" version="1.1" viewBox="0 0 1080 720" width="1080pt" xmlns="http://www.w3.org/2000/svg" xmlns:xlink="http://www.w3.org/1999/xlink">
 <defs>
  <style type="text/css">
*{stroke-linecap:butt;stroke-linejoin:round;}
  </style>
 </defs>
 <g id="figure_1">
  <g id="patch_1">
   <path d="M 0 720 
L 1080 720 
L 1080 0 
L 0 0 
z
" style="fill:#ffffff;"/>
  </g>
  <g id="axes_1">
   <g id="patch_2">
    <path d="M 39.94 276.421022 
L 260.955 276.421022 
L 260.955 143.812022 
L 39.94 143.812022 
z
" style="fill:#ffffff;"/>
   </g>
   <g id="matplotlib.axis_1">
    <g id="xtick_1">
     <g id="line2d_1">
      <defs>
       <path d="M 0 0 
L 0 3.5 
" id="m339d197830" style="stroke:#000000;stroke-width:0.8;"/>
      </defs>
      <g>
       <use style="stroke:#000000;stroke-width:0.8;" x="39.94" xlink:href="#m339d197830" y="276.421022"/>
      </g>
     </g>
     <g id="text_1">
      <!-- −10 -->
      <defs>
       <path d="M 10.59375 35.5 
L 73.1875 35.5 
L 73.1875 27.203125 
L 10.59375 27.203125 
z
" id="DejaVuSans-2212"/>
       <path d="M 12.40625 8.296875 
L 28.515625 8.296875 
L 28.515625 63.921875 
L 10.984375 60.40625 
L 10.984375 69.390625 
L 28.421875 72.90625 
L 38.28125 72.90625 
L 38.28125 8.296875 
L 54.390625 8.296875 
L 54.390625 0 
L 12.40625 0 
z
" id="DejaVuSans-31"/>
       <path d="M 31.78125 66.40625 
Q 24.171875 66.40625 20.328125 58.90625 
Q 16.5 51.421875 16.5 36.375 
Q 16.5 21.390625 20.328125 13.890625 
Q 24.171875 6.390625 31.78125 6.390625 
Q 39.453125 6.390625 43.28125 13.890625 
Q 47.125 21.390625 47.125 36.375 
Q 47.125 51.421875 43.28125 58.90625 
Q 39.453125 66.40625 31.78125 66.40625 
z
M 31.78125 74.21875 
Q 44.046875 74.21875 50.515625 64.515625 
Q 56.984375 54.828125 56.984375 36.375 
Q 56.984375 17.96875 50.515625 8.265625 
Q 44.046875 -1.421875 31.78125 -1.421875 
Q 19.53125 -1.421875 13.0625 8.265625 
Q 6.59375 17.96875 6.59375 36.375 
Q 6.59375 54.828125 13.0625 64.515625 
Q 19.53125 74.21875 31.78125 74.21875 
z
" id="DejaVuSans-30"/>
      </defs>
      <g transform="translate(29.387656 291.019459)scale(0.1 -0.1)">
       <use xlink:href="#DejaVuSans-2212"/>
       <use x="83.789062" xlink:href="#DejaVuSans-31"/>
       <use x="147.412109" xlink:href="#DejaVuSans-30"/>
      </g>
     </g>
    </g>
    <g id="xtick_2">
     <g id="line2d_2">
      <g>
       <use style="stroke:#000000;stroke-width:0.8;" x="95.19375" xlink:href="#m339d197830" y="276.421022"/>
      </g>
     </g>
     <g id="text_2">
      <!-- −5 -->
      <defs>
       <path d="M 10.796875 72.90625 
L 49.515625 72.90625 
L 49.515625 64.59375 
L 19.828125 64.59375 
L 19.828125 46.734375 
Q 21.96875 47.46875 24.109375 47.828125 
Q 26.265625 48.1875 28.421875 48.1875 
Q 40.625 48.1875 47.75 41.5 
Q 54.890625 34.8125 54.890625 23.390625 
Q 54.890625 11.625 47.5625 5.09375 
Q 40.234375 -1.421875 26.90625 -1.421875 
Q 22.3125 -1.421875 17.546875 -0.640625 
Q 12.796875 0.140625 7.71875 1.703125 
L 7.71875 11.625 
Q 12.109375 9.234375 16.796875 8.0625 
Q 21.484375 6.890625 26.703125 6.890625 
Q 35.15625 6.890625 40.078125 11.328125 
Q 45.015625 15.765625 45.015625 23.390625 
Q 45.015625 31 40.078125 35.4375 
Q 35.15625 39.890625 26.703125 39.890625 
Q 22.75 39.890625 18.8125 39.015625 
Q 14.890625 38.140625 10.796875 36.28125 
z
" id="DejaVuSans-35"/>
      </defs>
      <g transform="translate(87.822656 291.019459)scale(0.1 -0.1)">
       <use xlink:href="#DejaVuSans-2212"/>
       <use x="83.789062" xlink:href="#DejaVuSans-35"/>
      </g>
     </g>
    </g>
    <g id="xtick_3">
     <g id="line2d_3">
      <g>
       <use style="stroke:#000000;stroke-width:0.8;" x="150.4475" xlink:href="#m339d197830" y="276.421022"/>
      </g>
     </g>
     <g id="text_3">
      <!-- 0 -->
      <g transform="translate(147.26625 291.019459)scale(0.1 -0.1)">
       <use xlink:href="#DejaVuSans-30"/>
      </g>
     </g>
    </g>
    <g id="xtick_4">
     <g id="line2d_4">
      <g>
       <use style="stroke:#000000;stroke-width:0.8;" x="205.70125" xlink:href="#m339d197830" y="276.421022"/>
      </g>
     </g>
     <g id="text_4">
      <!-- 5 -->
      <g transform="translate(202.52 291.019459)scale(0.1 -0.1)">
       <use xlink:href="#DejaVuSans-35"/>
      </g>
     </g>
    </g>
    <g id="xtick_5">
     <g id="line2d_5">
      <g>
       <use style="stroke:#000000;stroke-width:0.8;" x="260.955" xlink:href="#m339d197830" y="276.421022"/>
      </g>
     </g>
     <g id="text_5">
      <!-- 10 -->
      <g transform="translate(254.5925 291.019459)scale(0.1 -0.1)">
       <use xlink:href="#DejaVuSans-31"/>
       <use x="63.623047" xlink:href="#DejaVuSans-30"/>
      </g>
     </g>
    </g>
   </g>
   <g id="matplotlib.axis_2">
    <g id="ytick_1">
     <g id="line2d_6">
      <defs>
       <path d="M 0 0 
L -3.5 0 
" id="m51a0cdd443" style="stroke:#000000;stroke-width:0.8;"/>
      </defs>
      <g>
       <use style="stroke:#000000;stroke-width:0.8;" x="39.94" xlink:href="#m51a0cdd443" y="276.421022"/>
      </g>
     </g>
     <g id="text_6">
      <!-- −2 -->
      <defs>
       <path d="M 19.1875 8.296875 
L 53.609375 8.296875 
L 53.609375 0 
L 7.328125 0 
L 7.328125 8.296875 
Q 12.9375 14.109375 22.625 23.890625 
Q 32.328125 33.6875 34.8125 36.53125 
Q 39.546875 41.84375 41.421875 45.53125 
Q 43.3125 49.21875 43.3125 52.78125 
Q 43.3125 58.59375 39.234375 62.25 
Q 35.15625 65.921875 28.609375 65.921875 
Q 23.96875 65.921875 18.8125 64.3125 
Q 13.671875 62.703125 7.8125 59.421875 
L 7.8125 69.390625 
Q 13.765625 71.78125 18.9375 73 
Q 24.125 74.21875 28.421875 74.21875 
Q 39.75 74.21875 46.484375 68.546875 
Q 53.21875 62.890625 53.21875 53.421875 
Q 53.21875 48.921875 51.53125 44.890625 
Q 49.859375 40.875 45.40625 35.40625 
Q 44.1875 33.984375 37.640625 27.21875 
Q 31.109375 20.453125 19.1875 8.296875 
z
" id="DejaVuSans-32"/>
      </defs>
      <g transform="translate(18.197813 280.22024)scale(0.1 -0.1)">
       <use xlink:href="#DejaVuSans-2212"/>
       <use x="83.789062" xlink:href="#DejaVuSans-32"/>
      </g>
     </g>
    </g>
    <g id="ytick_2">
     <g id="line2d_7">
      <g>
       <use style="stroke:#000000;stroke-width:0.8;" x="39.94" xlink:href="#m51a0cdd443" y="254.319522"/>
      </g>
     </g>
     <g id="text_7">
      <!-- 0 -->
      <g transform="translate(26.5775 258.11874)scale(0.1 -0.1)">
       <use xlink:href="#DejaVuSans-30"/>
      </g>
     </g>
    </g>
    <g id="ytick_3">
     <g id="line2d_8">
      <g>
       <use style="stroke:#000000;stroke-width:0.8;" x="39.94" xlink:href="#m51a0cdd443" y="232.218022"/>
      </g>
     </g>
     <g id="text_8">
      <!-- 2 -->
      <g transform="translate(26.5775 236.01724)scale(0.1 -0.1)">
       <use xlink:href="#DejaVuSans-32"/>
      </g>
     </g>
    </g>
    <g id="ytick_4">
     <g id="line2d_9">
      <g>
       <use style="stroke:#000000;stroke-width:0.8;" x="39.94" xlink:href="#m51a0cdd443" y="210.116522"/>
      </g>
     </g>
     <g id="text_9">
      <!-- 4 -->
      <defs>
       <path d="M 37.796875 64.3125 
L 12.890625 25.390625 
L 37.796875 25.390625 
z
M 35.203125 72.90625 
L 47.609375 72.90625 
L 47.609375 25.390625 
L 58.015625 25.390625 
L 58.015625 17.1875 
L 47.609375 17.1875 
L 47.609375 0 
L 37.796875 0 
L 37.796875 17.1875 
L 4.890625 17.1875 
L 4.890625 26.703125 
z
" id="DejaVuSans-34"/>
      </defs>
      <g transform="translate(26.5775 213.91574)scale(0.1 -0.1)">
       <use xlink:href="#DejaVuSans-34"/>
      </g>
     </g>
    </g>
    <g id="ytick_5">
     <g id="line2d_10">
      <g>
       <use style="stroke:#000000;stroke-width:0.8;" x="39.94" xlink:href="#m51a0cdd443" y="188.015022"/>
      </g>
     </g>
     <g id="text_10">
      <!-- 6 -->
      <defs>
       <path d="M 33.015625 40.375 
Q 26.375 40.375 22.484375 35.828125 
Q 18.609375 31.296875 18.609375 23.390625 
Q 18.609375 15.53125 22.484375 10.953125 
Q 26.375 6.390625 33.015625 6.390625 
Q 39.65625 6.390625 43.53125 10.953125 
Q 47.40625 15.53125 47.40625 23.390625 
Q 47.40625 31.296875 43.53125 35.828125 
Q 39.65625 40.375 33.015625 40.375 
z
M 52.59375 71.296875 
L 52.59375 62.3125 
Q 48.875 64.0625 45.09375 64.984375 
Q 41.3125 65.921875 37.59375 65.921875 
Q 27.828125 65.921875 22.671875 59.328125 
Q 17.53125 52.734375 16.796875 39.40625 
Q 19.671875 43.65625 24.015625 45.921875 
Q 28.375 48.1875 33.59375 48.1875 
Q 44.578125 48.1875 50.953125 41.515625 
Q 57.328125 34.859375 57.328125 23.390625 
Q 57.328125 12.15625 50.6875 5.359375 
Q 44.046875 -1.421875 33.015625 -1.421875 
Q 20.359375 -1.421875 13.671875 8.265625 
Q 6.984375 17.96875 6.984375 36.375 
Q 6.984375 53.65625 15.1875 63.9375 
Q 23.390625 74.21875 37.203125 74.21875 
Q 40.921875 74.21875 44.703125 73.484375 
Q 48.484375 72.75 52.59375 71.296875 
z
" id="DejaVuSans-36"/>
      </defs>
      <g transform="translate(26.5775 191.81424)scale(0.1 -0.1)">
       <use xlink:href="#DejaVuSans-36"/>
      </g>
     </g>
    </g>
    <g id="ytick_6">
     <g id="line2d_11">
      <g>
       <use style="stroke:#000000;stroke-width:0.8;" x="39.94" xlink:href="#m51a0cdd443" y="165.913522"/>
      </g>
     </g>
     <g id="text_11">
      <!-- 8 -->
      <defs>
       <path d="M 31.78125 34.625 
Q 24.75 34.625 20.71875 30.859375 
Q 16.703125 27.09375 16.703125 20.515625 
Q 16.703125 13.921875 20.71875 10.15625 
Q 24.75 6.390625 31.78125 6.390625 
Q 38.8125 6.390625 42.859375 10.171875 
Q 46.921875 13.96875 46.921875 20.515625 
Q 46.921875 27.09375 42.890625 30.859375 
Q 38.875 34.625 31.78125 34.625 
z
M 21.921875 38.8125 
Q 15.578125 40.375 12.03125 44.71875 
Q 8.5 49.078125 8.5 55.328125 
Q 8.5 64.0625 14.71875 69.140625 
Q 20.953125 74.21875 31.78125 74.21875 
Q 42.671875 74.21875 48.875 69.140625 
Q 55.078125 64.0625 55.078125 55.328125 
Q 55.078125 49.078125 51.53125 44.71875 
Q 48 40.375 41.703125 38.8125 
Q 48.828125 37.15625 52.796875 32.3125 
Q 56.78125 27.484375 56.78125 20.515625 
Q 56.78125 9.90625 50.3125 4.234375 
Q 43.84375 -1.421875 31.78125 -1.421875 
Q 19.734375 -1.421875 13.25 4.234375 
Q 6.78125 9.90625 6.78125 20.515625 
Q 6.78125 27.484375 10.78125 32.3125 
Q 14.796875 37.15625 21.921875 38.8125 
z
M 18.3125 54.390625 
Q 18.3125 48.734375 21.84375 45.5625 
Q 25.390625 42.390625 31.78125 42.390625 
Q 38.140625 42.390625 41.71875 45.5625 
Q 45.3125 48.734375 45.3125 54.390625 
Q 45.3125 60.0625 41.71875 63.234375 
Q 38.140625 66.40625 31.78125 66.40625 
Q 25.390625 66.40625 21.84375 63.234375 
Q 18.3125 60.0625 18.3125 54.390625 
z
" id="DejaVuSans-38"/>
      </defs>
      <g transform="translate(26.5775 169.71274)scale(0.1 -0.1)">
       <use xlink:href="#DejaVuSans-38"/>
      </g>
     </g>
    </g>
    <g id="ytick_7">
     <g id="line2d_12">
      <g>
       <use style="stroke:#000000;stroke-width:0.8;" x="39.94" xlink:href="#m51a0cdd443" y="143.812022"/>
      </g>
     </g>
     <g id="text_12">
      <!-- 10 -->
      <g transform="translate(20.215 147.61124)scale(0.1 -0.1)">
       <use xlink:href="#DejaVuSans-31"/>
       <use x="63.623047" xlink:href="#DejaVuSans-30"/>
      </g>
     </g>
    </g>
   </g>
   <g id="LineCollection_1">
    <path clip-path="url(#p6e359c92d8)" d="M 128.346 143.812022 
L 128.346 232.218022 
L 150.003695 243.046869 
L 150.891305 243.046869 
L 172.549 232.218022 
L 172.549 143.812022 
L 172.549 143.812022 
" style="fill:none;stroke:#000000;stroke-width:1.5;"/>
   </g>
   <g id="patch_3">
    <path d="M 39.94 276.421022 
L 39.94 143.812022 
" style="fill:none;stroke:#000000;stroke-linecap:square;stroke-linejoin:miter;stroke-width:0.8;"/>
   </g>
   <g id="patch_4">
    <path d="M 260.955 276.421022 
L 260.955 143.812022 
" style="fill:none;stroke:#000000;stroke-linecap:square;stroke-linejoin:miter;stroke-width:0.8;"/>
   </g>
   <g id="patch_5">
    <path d="M 39.94 276.421022 
L 260.955 276.421022 
" style="fill:none;stroke:#000000;stroke-linecap:square;stroke-linejoin:miter;stroke-width:0.8;"/>
   </g>
   <g id="patch_6">
    <path d="M 39.94 143.812022 
L 260.955 143.812022 
" style="fill:none;stroke:#000000;stroke-linecap:square;stroke-linejoin:miter;stroke-width:0.8;"/>
   </g>
   <g id="text_13">
    <!-- taxicab, p=1 -->
    <defs>
     <path d="M 18.3125 70.21875 
L 18.3125 54.6875 
L 36.8125 54.6875 
L 36.8125 47.703125 
L 18.3125 47.703125 
L 18.3125 18.015625 
Q 18.3125 11.328125 20.140625 9.421875 
Q 21.96875 7.515625 27.59375 7.515625 
L 36.8125 7.515625 
L 36.8125 0 
L 27.59375 0 
Q 17.1875 0 13.234375 3.875 
Q 9.28125 7.765625 9.28125 18.015625 
L 9.28125 47.703125 
L 2.6875 47.703125 
L 2.6875 54.6875 
L 9.28125 54.6875 
L 9.28125 70.21875 
z
" id="DejaVuSans-74"/>
     <path d="M 34.28125 27.484375 
Q 23.390625 27.484375 19.1875 25 
Q 14.984375 22.515625 14.984375 16.5 
Q 14.984375 11.71875 18.140625 8.90625 
Q 21.296875 6.109375 26.703125 6.109375 
Q 34.1875 6.109375 38.703125 11.40625 
Q 43.21875 16.703125 43.21875 25.484375 
L 43.21875 27.484375 
z
M 52.203125 31.203125 
L 52.203125 0 
L 43.21875 0 
L 43.21875 8.296875 
Q 40.140625 3.328125 35.546875 0.953125 
Q 30.953125 -1.421875 24.3125 -1.421875 
Q 15.921875 -1.421875 10.953125 3.296875 
Q 6 8.015625 6 15.921875 
Q 6 25.140625 12.171875 29.828125 
Q 18.359375 34.515625 30.609375 34.515625 
L 43.21875 34.515625 
L 43.21875 35.40625 
Q 43.21875 41.609375 39.140625 45 
Q 35.0625 48.390625 27.6875 48.390625 
Q 23 48.390625 18.546875 47.265625 
Q 14.109375 46.140625 10.015625 43.890625 
L 10.015625 52.203125 
Q 14.9375 54.109375 19.578125 55.046875 
Q 24.21875 56 28.609375 56 
Q 40.484375 56 46.34375 49.84375 
Q 52.203125 43.703125 52.203125 31.203125 
z
" id="DejaVuSans-61"/>
     <path d="M 54.890625 54.6875 
L 35.109375 28.078125 
L 55.90625 0 
L 45.3125 0 
L 29.390625 21.484375 
L 13.484375 0 
L 2.875 0 
L 24.125 28.609375 
L 4.6875 54.6875 
L 15.28125 54.6875 
L 29.78125 35.203125 
L 44.28125 54.6875 
z
" id="DejaVuSans-78"/>
     <path d="M 9.421875 54.6875 
L 18.40625 54.6875 
L 18.40625 0 
L 9.421875 0 
z
M 9.421875 75.984375 
L 18.40625 75.984375 
L 18.40625 64.59375 
L 9.421875 64.59375 
z
" id="DejaVuSans-69"/>
     <path d="M 48.78125 52.59375 
L 48.78125 44.1875 
Q 44.96875 46.296875 41.140625 47.34375 
Q 37.3125 48.390625 33.40625 48.390625 
Q 24.65625 48.390625 19.8125 42.84375 
Q 14.984375 37.3125 14.984375 27.296875 
Q 14.984375 17.28125 19.8125 11.734375 
Q 24.65625 6.203125 33.40625 6.203125 
Q 37.3125 6.203125 41.140625 7.25 
Q 44.96875 8.296875 48.78125 10.40625 
L 48.78125 2.09375 
Q 45.015625 0.34375 40.984375 -0.53125 
Q 36.96875 -1.421875 32.421875 -1.421875 
Q 20.0625 -1.421875 12.78125 6.34375 
Q 5.515625 14.109375 5.515625 27.296875 
Q 5.515625 40.671875 12.859375 48.328125 
Q 20.21875 56 33.015625 56 
Q 37.15625 56 41.109375 55.140625 
Q 45.0625 54.296875 48.78125 52.59375 
z
" id="DejaVuSans-63"/>
     <path d="M 48.6875 27.296875 
Q 48.6875 37.203125 44.609375 42.84375 
Q 40.53125 48.484375 33.40625 48.484375 
Q 26.265625 48.484375 22.1875 42.84375 
Q 18.109375 37.203125 18.109375 27.296875 
Q 18.109375 17.390625 22.1875 11.75 
Q 26.265625 6.109375 33.40625 6.109375 
Q 40.53125 6.109375 44.609375 11.75 
Q 48.6875 17.390625 48.6875 27.296875 
z
M 18.109375 46.390625 
Q 20.953125 51.265625 25.265625 53.625 
Q 29.59375 56 35.59375 56 
Q 45.5625 56 51.78125 48.09375 
Q 58.015625 40.1875 58.015625 27.296875 
Q 58.015625 14.40625 51.78125 6.484375 
Q 45.5625 -1.421875 35.59375 -1.421875 
Q 29.59375 -1.421875 25.265625 0.953125 
Q 20.953125 3.328125 18.109375 8.203125 
L 18.109375 0 
L 9.078125 0 
L 9.078125 75.984375 
L 18.109375 75.984375 
z
" id="DejaVuSans-62"/>
     <path d="M 11.71875 12.40625 
L 22.015625 12.40625 
L 22.015625 4 
L 14.015625 -11.625 
L 7.71875 -11.625 
L 11.71875 4 
z
" id="DejaVuSans-2c"/>
     <path id="DejaVuSans-20"/>
     <path d="M 18.109375 8.203125 
L 18.109375 -20.796875 
L 9.078125 -20.796875 
L 9.078125 54.6875 
L 18.109375 54.6875 
L 18.109375 46.390625 
Q 20.953125 51.265625 25.265625 53.625 
Q 29.59375 56 35.59375 56 
Q 45.5625 56 51.78125 48.09375 
Q 58.015625 40.1875 58.015625 27.296875 
Q 58.015625 14.40625 51.78125 6.484375 
Q 45.5625 -1.421875 35.59375 -1.421875 
Q 29.59375 -1.421875 25.265625 0.953125 
Q 20.953125 3.328125 18.109375 8.203125 
z
M 48.6875 27.296875 
Q 48.6875 37.203125 44.609375 42.84375 
Q 40.53125 48.484375 33.40625 48.484375 
Q 26.265625 48.484375 22.1875 42.84375 
Q 18.109375 37.203125 18.109375 27.296875 
Q 18.109375 17.390625 22.1875 11.75 
Q 26.265625 6.109375 33.40625 6.109375 
Q 40.53125 6.109375 44.609375 11.75 
Q 48.6875 17.390625 48.6875 27.296875 
z
" id="DejaVuSans-70"/>
     <path d="M 10.59375 45.40625 
L 73.1875 45.40625 
L 73.1875 37.203125 
L 10.59375 37.203125 
z
M 10.59375 25.484375 
L 73.1875 25.484375 
L 73.1875 17.1875 
L 10.59375 17.1875 
z
" id="DejaVuSans-3d"/>
    </defs>
    <g transform="translate(111.947187 137.812022)scale(0.12 -0.12)">
     <use xlink:href="#DejaVuSans-74"/>
     <use x="39.208984" xlink:href="#DejaVuSans-61"/>
     <use x="100.488281" xlink:href="#DejaVuSans-78"/>
     <use x="159.667969" xlink:href="#DejaVuSans-69"/>
     <use x="187.451172" xlink:href="#DejaVuSans-63"/>
     <use x="242.431641" xlink:href="#DejaVuSans-61"/>
     <use x="303.710938" xlink:href="#DejaVuSans-62"/>
     <use x="367.1875" xlink:href="#DejaVuSans-2c"/>
     <use x="398.974609" xlink:href="#DejaVuSans-20"/>
     <use x="430.761719" xlink:href="#DejaVuSans-70"/>
     <use x="494.238281" xlink:href="#DejaVuSans-3d"/>
     <use x="578.027344" xlink:href="#DejaVuSans-31"/>
    </g>
   </g>
  </g>
  <g id="axes_2">
   <g id="patch_7">
    <path d="M 307.24 276.421022 
L 528.255 276.421022 
L 528.255 143.812022 
L 307.24 143.812022 
z
" style="fill:#ffffff;"/>
   </g>
   <g id="matplotlib.axis_3">
    <g id="xtick_6">
     <g id="line2d_13">
      <g>
       <use style="stroke:#000000;stroke-width:0.8;" x="307.24" xlink:href="#m339d197830" y="276.421022"/>
      </g>
     </g>
     <g id="text_14">
      <!-- −10 -->
      <g transform="translate(296.687656 291.019459)scale(0.1 -0.1)">
       <use xlink:href="#DejaVuSans-2212"/>
       <use x="83.789062" xlink:href="#DejaVuSans-31"/>
       <use x="147.412109" xlink:href="#DejaVuSans-30"/>
      </g>
     </g>
    </g>
    <g id="xtick_7">
     <g id="line2d_14">
      <g>
       <use style="stroke:#000000;stroke-width:0.8;" x="362.49375" xlink:href="#m339d197830" y="276.421022"/>
      </g>
     </g>
     <g id="text_15">
      <!-- −5 -->
      <g transform="translate(355.122656 291.019459)scale(0.1 -0.1)">
       <use xlink:href="#DejaVuSans-2212"/>
       <use x="83.789062" xlink:href="#DejaVuSans-35"/>
      </g>
     </g>
    </g>
    <g id="xtick_8">
     <g id="line2d_15">
      <g>
       <use style="stroke:#000000;stroke-width:0.8;" x="417.7475" xlink:href="#m339d197830" y="276.421022"/>
      </g>
     </g>
     <g id="text_16">
      <!-- 0 -->
      <g transform="translate(414.56625 291.019459)scale(0.1 -0.1)">
       <use xlink:href="#DejaVuSans-30"/>
      </g>
     </g>
    </g>
    <g id="xtick_9">
     <g id="line2d_16">
      <g>
       <use style="stroke:#000000;stroke-width:0.8;" x="473.00125" xlink:href="#m339d197830" y="276.421022"/>
      </g>
     </g>
     <g id="text_17">
      <!-- 5 -->
      <g transform="translate(469.82 291.019459)scale(0.1 -0.1)">
       <use xlink:href="#DejaVuSans-35"/>
      </g>
     </g>
    </g>
    <g id="xtick_10">
     <g id="line2d_17">
      <g>
       <use style="stroke:#000000;stroke-width:0.8;" x="528.255" xlink:href="#m339d197830" y="276.421022"/>
      </g>
     </g>
     <g id="text_18">
      <!-- 10 -->
      <g transform="translate(521.8925 291.019459)scale(0.1 -0.1)">
       <use xlink:href="#DejaVuSans-31"/>
       <use x="63.623047" xlink:href="#DejaVuSans-30"/>
      </g>
     </g>
    </g>
   </g>
   <g id="matplotlib.axis_4">
    <g id="ytick_8">
     <g id="line2d_18">
      <g>
       <use style="stroke:#000000;stroke-width:0.8;" x="307.24" xlink:href="#m51a0cdd443" y="276.421022"/>
      </g>
     </g>
     <g id="text_19">
      <!-- −2 -->
      <g transform="translate(285.497813 280.22024)scale(0.1 -0.1)">
       <use xlink:href="#DejaVuSans-2212"/>
       <use x="83.789062" xlink:href="#DejaVuSans-32"/>
      </g>
     </g>
    </g>
    <g id="ytick_9">
     <g id="line2d_19">
      <g>
       <use style="stroke:#000000;stroke-width:0.8;" x="307.24" xlink:href="#m51a0cdd443" y="254.319522"/>
      </g>
     </g>
     <g id="text_20">
      <!-- 0 -->
      <g transform="translate(293.8775 258.11874)scale(0.1 -0.1)">
       <use xlink:href="#DejaVuSans-30"/>
      </g>
     </g>
    </g>
    <g id="ytick_10">
     <g id="line2d_20">
      <g>
       <use style="stroke:#000000;stroke-width:0.8;" x="307.24" xlink:href="#m51a0cdd443" y="232.218022"/>
      </g>
     </g>
     <g id="text_21">
      <!-- 2 -->
      <g transform="translate(293.8775 236.01724)scale(0.1 -0.1)">
       <use xlink:href="#DejaVuSans-32"/>
      </g>
     </g>
    </g>
    <g id="ytick_11">
     <g id="line2d_21">
      <g>
       <use style="stroke:#000000;stroke-width:0.8;" x="307.24" xlink:href="#m51a0cdd443" y="210.116522"/>
      </g>
     </g>
     <g id="text_22">
      <!-- 4 -->
      <g transform="translate(293.8775 213.91574)scale(0.1 -0.1)">
       <use xlink:href="#DejaVuSans-34"/>
      </g>
     </g>
    </g>
    <g id="ytick_12">
     <g id="line2d_22">
      <g>
       <use style="stroke:#000000;stroke-width:0.8;" x="307.24" xlink:href="#m51a0cdd443" y="188.015022"/>
      </g>
     </g>
     <g id="text_23">
      <!-- 6 -->
      <g transform="translate(293.8775 191.81424)scale(0.1 -0.1)">
       <use xlink:href="#DejaVuSans-36"/>
      </g>
     </g>
    </g>
    <g id="ytick_13">
     <g id="line2d_23">
      <g>
       <use style="stroke:#000000;stroke-width:0.8;" x="307.24" xlink:href="#m51a0cdd443" y="165.913522"/>
      </g>
     </g>
     <g id="text_24">
      <!-- 8 -->
      <g transform="translate(293.8775 169.71274)scale(0.1 -0.1)">
       <use xlink:href="#DejaVuSans-38"/>
      </g>
     </g>
    </g>
    <g id="ytick_14">
     <g id="line2d_24">
      <g>
       <use style="stroke:#000000;stroke-width:0.8;" x="307.24" xlink:href="#m51a0cdd443" y="143.812022"/>
      </g>
     </g>
     <g id="text_25">
      <!-- 10 -->
      <g transform="translate(287.515 147.61124)scale(0.1 -0.1)">
       <use xlink:href="#DejaVuSans-31"/>
       <use x="63.623047" xlink:href="#DejaVuSans-30"/>
      </g>
     </g>
    </g>
   </g>
   <g id="LineCollection_2">
    <path clip-path="url(#pce2989b51c)" d="M 369.950787 143.812022 
L 372.2861 157.658745 
L 374.57387 169.907769 
L 376.783442 180.559094 
L 379.000316 190.145287 
L 381.066343 198.133781 
L 383.070655 205.057142 
L 384.973302 210.915371 
L 386.926322 216.241034 
L 388.699742 220.501564 
L 390.468449 224.229528 
L 392.219485 227.424925 
L 393.938714 230.087757 
L 395.16793 231.685455 
L 396.234399 232.750588 
L 398.663876 234.656663 
L 401.326707 236.480889 
L 404.887714 238.608817 
L 408.42759 240.407206 
L 411.779006 241.804215 
L 413.753253 242.468026 
L 416.416084 243.114691 
L 417.303695 243.23912 
L 418.191305 243.23912 
L 420.245453 242.869347 
L 422.629357 242.186577 
L 425.292189 241.187467 
L 428.585977 239.673949 
L 431.551179 238.076251 
L 435.055904 235.897272 
L 437.952846 233.815721 
L 439.849 232.218022 
L 441.269177 230.482612 
L 442.623821 228.490058 
L 444.184316 225.827227 
L 445.814535 222.631829 
L 447.709717 218.371299 
L 449.576284 213.578202 
L 451.413961 208.25254 
L 453.377911 201.861745 
L 455.421631 194.405817 
L 457.510744 185.884757 
L 459.623551 176.298564 
L 461.744398 165.647239 
L 464.044137 152.865648 
L 465.544213 143.812022 
L 465.544213 143.812022 
" style="fill:none;stroke:#000000;stroke-width:1.5;"/>
   </g>
   <g id="patch_8">
    <path d="M 307.24 276.421022 
L 307.24 143.812022 
" style="fill:none;stroke:#000000;stroke-linecap:square;stroke-linejoin:miter;stroke-width:0.8;"/>
   </g>
   <g id="patch_9">
    <path d="M 528.255 276.421022 
L 528.255 143.812022 
" style="fill:none;stroke:#000000;stroke-linecap:square;stroke-linejoin:miter;stroke-width:0.8;"/>
   </g>
   <g id="patch_10">
    <path d="M 307.24 276.421022 
L 528.255 276.421022 
" style="fill:none;stroke:#000000;stroke-linecap:square;stroke-linejoin:miter;stroke-width:0.8;"/>
   </g>
   <g id="patch_11">
    <path d="M 307.24 143.812022 
L 528.255 143.812022 
" style="fill:none;stroke:#000000;stroke-linecap:square;stroke-linejoin:miter;stroke-width:0.8;"/>
   </g>
   <g id="text_26">
    <!-- p=1.5 -->
    <defs>
     <path d="M 10.6875 12.40625 
L 21 12.40625 
L 21 0 
L 10.6875 0 
z
" id="DejaVuSans-2e"/>
    </defs>
    <g transform="translate(399.36875 137.812022)scale(0.12 -0.12)">
     <use xlink:href="#DejaVuSans-70"/>
     <use x="63.476562" xlink:href="#DejaVuSans-3d"/>
     <use x="147.265625" xlink:href="#DejaVuSans-31"/>
     <use x="210.888672" xlink:href="#DejaVuSans-2e"/>
     <use x="242.675781" xlink:href="#DejaVuSans-35"/>
    </g>
   </g>
  </g>
  <g id="axes_3">
   <g id="patch_12">
    <path d="M 574.54 276.421022 
L 795.555 276.421022 
L 795.555 143.812022 
L 574.54 143.812022 
z
" style="fill:#ffffff;"/>
   </g>
   <g id="matplotlib.axis_5">
    <g id="xtick_11">
     <g id="line2d_25">
      <g>
       <use style="stroke:#000000;stroke-width:0.8;" x="574.54" xlink:href="#m339d197830" y="276.421022"/>
      </g>
     </g>
     <g id="text_27">
      <!-- −10 -->
      <g transform="translate(563.987656 291.019459)scale(0.1 -0.1)">
       <use xlink:href="#DejaVuSans-2212"/>
       <use x="83.789062" xlink:href="#DejaVuSans-31"/>
       <use x="147.412109" xlink:href="#DejaVuSans-30"/>
      </g>
     </g>
    </g>
    <g id="xtick_12">
     <g id="line2d_26">
      <g>
       <use style="stroke:#000000;stroke-width:0.8;" x="629.79375" xlink:href="#m339d197830" y="276.421022"/>
      </g>
     </g>
     <g id="text_28">
      <!-- −5 -->
      <g transform="translate(622.422656 291.019459)scale(0.1 -0.1)">
       <use xlink:href="#DejaVuSans-2212"/>
       <use x="83.789062" xlink:href="#DejaVuSans-35"/>
      </g>
     </g>
    </g>
    <g id="xtick_13">
     <g id="line2d_27">
      <g>
       <use style="stroke:#000000;stroke-width:0.8;" x="685.0475" xlink:href="#m339d197830" y="276.421022"/>
      </g>
     </g>
     <g id="text_29">
      <!-- 0 -->
      <g transform="translate(681.86625 291.019459)scale(0.1 -0.1)">
       <use xlink:href="#DejaVuSans-30"/>
      </g>
     </g>
    </g>
    <g id="xtick_14">
     <g id="line2d_28">
      <g>
       <use style="stroke:#000000;stroke-width:0.8;" x="740.30125" xlink:href="#m339d197830" y="276.421022"/>
      </g>
     </g>
     <g id="text_30">
      <!-- 5 -->
      <g transform="translate(737.12 291.019459)scale(0.1 -0.1)">
       <use xlink:href="#DejaVuSans-35"/>
      </g>
     </g>
    </g>
    <g id="xtick_15">
     <g id="line2d_29">
      <g>
       <use style="stroke:#000000;stroke-width:0.8;" x="795.555" xlink:href="#m339d197830" y="276.421022"/>
      </g>
     </g>
     <g id="text_31">
      <!-- 10 -->
      <g transform="translate(789.1925 291.019459)scale(0.1 -0.1)">
       <use xlink:href="#DejaVuSans-31"/>
       <use x="63.623047" xlink:href="#DejaVuSans-30"/>
      </g>
     </g>
    </g>
   </g>
   <g id="matplotlib.axis_6">
    <g id="ytick_15">
     <g id="line2d_30">
      <g>
       <use style="stroke:#000000;stroke-width:0.8;" x="574.54" xlink:href="#m51a0cdd443" y="276.421022"/>
      </g>
     </g>
     <g id="text_32">
      <!-- −2 -->
      <g transform="translate(552.797812 280.22024)scale(0.1 -0.1)">
       <use xlink:href="#DejaVuSans-2212"/>
       <use x="83.789062" xlink:href="#DejaVuSans-32"/>
      </g>
     </g>
    </g>
    <g id="ytick_16">
     <g id="line2d_31">
      <g>
       <use style="stroke:#000000;stroke-width:0.8;" x="574.54" xlink:href="#m51a0cdd443" y="254.319522"/>
      </g>
     </g>
     <g id="text_33">
      <!-- 0 -->
      <g transform="translate(561.1775 258.11874)scale(0.1 -0.1)">
       <use xlink:href="#DejaVuSans-30"/>
      </g>
     </g>
    </g>
    <g id="ytick_17">
     <g id="line2d_32">
      <g>
       <use style="stroke:#000000;stroke-width:0.8;" x="574.54" xlink:href="#m51a0cdd443" y="232.218022"/>
      </g>
     </g>
     <g id="text_34">
      <!-- 2 -->
      <g transform="translate(561.1775 236.01724)scale(0.1 -0.1)">
       <use xlink:href="#DejaVuSans-32"/>
      </g>
     </g>
    </g>
    <g id="ytick_18">
     <g id="line2d_33">
      <g>
       <use style="stroke:#000000;stroke-width:0.8;" x="574.54" xlink:href="#m51a0cdd443" y="210.116522"/>
      </g>
     </g>
     <g id="text_35">
      <!-- 4 -->
      <g transform="translate(561.1775 213.91574)scale(0.1 -0.1)">
       <use xlink:href="#DejaVuSans-34"/>
      </g>
     </g>
    </g>
    <g id="ytick_19">
     <g id="line2d_34">
      <g>
       <use style="stroke:#000000;stroke-width:0.8;" x="574.54" xlink:href="#m51a0cdd443" y="188.015022"/>
      </g>
     </g>
     <g id="text_36">
      <!-- 6 -->
      <g transform="translate(561.1775 191.81424)scale(0.1 -0.1)">
       <use xlink:href="#DejaVuSans-36"/>
      </g>
     </g>
    </g>
    <g id="ytick_20">
     <g id="line2d_35">
      <g>
       <use style="stroke:#000000;stroke-width:0.8;" x="574.54" xlink:href="#m51a0cdd443" y="165.913522"/>
      </g>
     </g>
     <g id="text_37">
      <!-- 8 -->
      <g transform="translate(561.1775 169.71274)scale(0.1 -0.1)">
       <use xlink:href="#DejaVuSans-38"/>
      </g>
     </g>
    </g>
    <g id="ytick_21">
     <g id="line2d_36">
      <g>
       <use style="stroke:#000000;stroke-width:0.8;" x="574.54" xlink:href="#m51a0cdd443" y="143.812022"/>
      </g>
     </g>
     <g id="text_38">
      <!-- 10 -->
      <g transform="translate(554.815 147.61124)scale(0.1 -0.1)">
       <use xlink:href="#DejaVuSans-31"/>
       <use x="63.623047" xlink:href="#DejaVuSans-30"/>
      </g>
     </g>
    </g>
   </g>
   <g id="LineCollection_3">
    <path clip-path="url(#pf5c7e31f75)" d="M 618.743605 143.812022 
L 622.470964 154.680895 
L 626.272037 165.114672 
L 629.994756 174.700865 
L 633.528981 183.221925 
L 637.078211 191.210419 
L 640.381415 198.133781 
L 643.773614 204.72885 
L 646.921259 210.382805 
L 650.144394 215.708468 
L 653.324293 220.501564 
L 656.446093 224.762094 
L 659.032095 227.957492 
L 661.905375 231.152889 
L 664.606071 233.815721 
L 667.056302 235.945986 
L 669.898254 238.076251 
L 672.443608 239.673949 
L 674.83998 240.910808 
L 677.502811 241.980498 
L 680.165643 242.729386 
L 682.828474 243.157312 
L 685.491305 243.264314 
L 688.154137 243.050326 
L 690.816968 242.515391 
L 693.479799 241.659629 
L 696.142631 240.482818 
L 698.553381 239.141383 
L 700.954945 237.543684 
L 703.681461 235.413419 
L 706.056878 233.283154 
L 708.692774 230.620323 
L 711.511442 227.424925 
L 714.460397 223.696961 
L 717.504464 219.436431 
L 720.618447 214.643335 
L 723.78657 209.317672 
L 726.995627 203.459443 
L 730.237236 197.068648 
L 733.505614 190.145287 
L 737.021659 182.156793 
L 740.738199 173.103166 
L 744.42057 163.516974 
L 748.261355 152.865648 
L 751.351395 143.812022 
L 751.351395 143.812022 
" style="fill:none;stroke:#000000;stroke-width:1.5;"/>
   </g>
   <g id="patch_13">
    <path d="M 574.54 276.421022 
L 574.54 143.812022 
" style="fill:none;stroke:#000000;stroke-linecap:square;stroke-linejoin:miter;stroke-width:0.8;"/>
   </g>
   <g id="patch_14">
    <path d="M 795.555 276.421022 
L 795.555 143.812022 
" style="fill:none;stroke:#000000;stroke-linecap:square;stroke-linejoin:miter;stroke-width:0.8;"/>
   </g>
   <g id="patch_15">
    <path d="M 574.54 276.421022 
L 795.555 276.421022 
" style="fill:none;stroke:#000000;stroke-linecap:square;stroke-linejoin:miter;stroke-width:0.8;"/>
   </g>
   <g id="patch_16">
    <path d="M 574.54 143.812022 
L 795.555 143.812022 
" style="fill:none;stroke:#000000;stroke-linecap:square;stroke-linejoin:miter;stroke-width:0.8;"/>
   </g>
   <g id="text_39">
    <!-- p=2 -->
    <g transform="translate(672.393125 137.812022)scale(0.12 -0.12)">
     <use xlink:href="#DejaVuSans-70"/>
     <use x="63.476562" xlink:href="#DejaVuSans-3d"/>
     <use x="147.265625" xlink:href="#DejaVuSans-32"/>
    </g>
   </g>
  </g>
  <g id="axes_4">
   <g id="patch_17">
    <path d="M 841.84 276.421022 
L 1062.855 276.421022 
L 1062.855 143.812022 
L 841.84 143.812022 
z
" style="fill:#ffffff;"/>
   </g>
   <g id="matplotlib.axis_7">
    <g id="xtick_16">
     <g id="line2d_37">
      <g>
       <use style="stroke:#000000;stroke-width:0.8;" x="841.84" xlink:href="#m339d197830" y="276.421022"/>
      </g>
     </g>
     <g id="text_40">
      <!-- −10 -->
      <g transform="translate(831.287656 291.019459)scale(0.1 -0.1)">
       <use xlink:href="#DejaVuSans-2212"/>
       <use x="83.789062" xlink:href="#DejaVuSans-31"/>
       <use x="147.412109" xlink:href="#DejaVuSans-30"/>
      </g>
     </g>
    </g>
    <g id="xtick_17">
     <g id="line2d_38">
      <g>
       <use style="stroke:#000000;stroke-width:0.8;" x="897.09375" xlink:href="#m339d197830" y="276.421022"/>
      </g>
     </g>
     <g id="text_41">
      <!-- −5 -->
      <g transform="translate(889.722656 291.019459)scale(0.1 -0.1)">
       <use xlink:href="#DejaVuSans-2212"/>
       <use x="83.789062" xlink:href="#DejaVuSans-35"/>
      </g>
     </g>
    </g>
    <g id="xtick_18">
     <g id="line2d_39">
      <g>
       <use style="stroke:#000000;stroke-width:0.8;" x="952.3475" xlink:href="#m339d197830" y="276.421022"/>
      </g>
     </g>
     <g id="text_42">
      <!-- 0 -->
      <g transform="translate(949.16625 291.019459)scale(0.1 -0.1)">
       <use xlink:href="#DejaVuSans-30"/>
      </g>
     </g>
    </g>
    <g id="xtick_19">
     <g id="line2d_40">
      <g>
       <use style="stroke:#000000;stroke-width:0.8;" x="1007.60125" xlink:href="#m339d197830" y="276.421022"/>
      </g>
     </g>
     <g id="text_43">
      <!-- 5 -->
      <g transform="translate(1004.42 291.019459)scale(0.1 -0.1)">
       <use xlink:href="#DejaVuSans-35"/>
      </g>
     </g>
    </g>
    <g id="xtick_20">
     <g id="line2d_41">
      <g>
       <use style="stroke:#000000;stroke-width:0.8;" x="1062.855" xlink:href="#m339d197830" y="276.421022"/>
      </g>
     </g>
     <g id="text_44">
      <!-- 10 -->
      <g transform="translate(1056.4925 291.019459)scale(0.1 -0.1)">
       <use xlink:href="#DejaVuSans-31"/>
       <use x="63.623047" xlink:href="#DejaVuSans-30"/>
      </g>
     </g>
    </g>
   </g>
   <g id="matplotlib.axis_8">
    <g id="ytick_22">
     <g id="line2d_42">
      <g>
       <use style="stroke:#000000;stroke-width:0.8;" x="841.84" xlink:href="#m51a0cdd443" y="276.421022"/>
      </g>
     </g>
     <g id="text_45">
      <!-- −2 -->
      <g transform="translate(820.097813 280.22024)scale(0.1 -0.1)">
       <use xlink:href="#DejaVuSans-2212"/>
       <use x="83.789062" xlink:href="#DejaVuSans-32"/>
      </g>
     </g>
    </g>
    <g id="ytick_23">
     <g id="line2d_43">
      <g>
       <use style="stroke:#000000;stroke-width:0.8;" x="841.84" xlink:href="#m51a0cdd443" y="254.319522"/>
      </g>
     </g>
     <g id="text_46">
      <!-- 0 -->
      <g transform="translate(828.4775 258.11874)scale(0.1 -0.1)">
       <use xlink:href="#DejaVuSans-30"/>
      </g>
     </g>
    </g>
    <g id="ytick_24">
     <g id="line2d_44">
      <g>
       <use style="stroke:#000000;stroke-width:0.8;" x="841.84" xlink:href="#m51a0cdd443" y="232.218022"/>
      </g>
     </g>
     <g id="text_47">
      <!-- 2 -->
      <g transform="translate(828.4775 236.01724)scale(0.1 -0.1)">
       <use xlink:href="#DejaVuSans-32"/>
      </g>
     </g>
    </g>
    <g id="ytick_25">
     <g id="line2d_45">
      <g>
       <use style="stroke:#000000;stroke-width:0.8;" x="841.84" xlink:href="#m51a0cdd443" y="210.116522"/>
      </g>
     </g>
     <g id="text_48">
      <!-- 4 -->
      <g transform="translate(828.4775 213.91574)scale(0.1 -0.1)">
       <use xlink:href="#DejaVuSans-34"/>
      </g>
     </g>
    </g>
    <g id="ytick_26">
     <g id="line2d_46">
      <g>
       <use style="stroke:#000000;stroke-width:0.8;" x="841.84" xlink:href="#m51a0cdd443" y="188.015022"/>
      </g>
     </g>
     <g id="text_49">
      <!-- 6 -->
      <g transform="translate(828.4775 191.81424)scale(0.1 -0.1)">
       <use xlink:href="#DejaVuSans-36"/>
      </g>
     </g>
    </g>
    <g id="ytick_27">
     <g id="line2d_47">
      <g>
       <use style="stroke:#000000;stroke-width:0.8;" x="841.84" xlink:href="#m51a0cdd443" y="165.913522"/>
      </g>
     </g>
     <g id="text_50">
      <!-- 8 -->
      <g transform="translate(828.4775 169.71274)scale(0.1 -0.1)">
       <use xlink:href="#DejaVuSans-38"/>
      </g>
     </g>
    </g>
    <g id="ytick_28">
     <g id="line2d_48">
      <g>
       <use style="stroke:#000000;stroke-width:0.8;" x="841.84" xlink:href="#m51a0cdd443" y="143.812022"/>
      </g>
     </g>
     <g id="text_51">
      <!-- 10 -->
      <g transform="translate(822.115 147.61124)scale(0.1 -0.1)">
       <use xlink:href="#DejaVuSans-31"/>
       <use x="63.623047" xlink:href="#DejaVuSans-30"/>
      </g>
     </g>
    </g>
   </g>
   <g id="LineCollection_4">
    <path clip-path="url(#pbdb7068ac1)" d="M 865.346165 143.812022 
L 871.646313 154.463347 
L 877.530607 164.04954 
L 883.999843 174.168299 
L 889.770964 182.811968 
L 895.984237 191.695213 
L 901.3099 198.946783 
L 906.635562 205.852561 
L 911.609997 211.980504 
L 916.62738 217.838733 
L 921.946571 223.696961 
L 927.593445 229.55519 
L 934.588042 236.478552 
L 936.9981 238.608817 
L 939.147646 240.206516 
L 940.958403 241.271648 
L 942.13998 241.825227 
L 943.915201 242.451276 
L 945.709191 242.869347 
L 948.353253 243.181659 
L 951.903695 243.268652 
L 956.341747 243.181659 
L 959.004578 242.866296 
L 961.147511 242.336781 
L 962.603697 241.804215 
L 964.698658 240.739082 
L 966.317034 239.673949 
L 968.332115 238.076251 
L 970.669694 235.945986 
L 976.044277 230.620323 
L 982.248553 224.229528 
L 987.597235 218.371299 
L 992.733775 212.401154 
L 998.059438 205.852561 
L 1003.3851 198.946783 
L 1008.710763 191.695213 
L 1014.643486 183.221925 
L 1020.347181 174.700865 
L 1026.83053 164.582106 
L 1033.048687 154.463347 
L 1039.348835 143.812022 
L 1039.348835 143.812022 
" style="fill:none;stroke:#000000;stroke-width:1.5;"/>
   </g>
   <g id="patch_18">
    <path d="M 841.84 276.421022 
L 841.84 143.812022 
" style="fill:none;stroke:#000000;stroke-linecap:square;stroke-linejoin:miter;stroke-width:0.8;"/>
   </g>
   <g id="patch_19">
    <path d="M 1062.855 276.421022 
L 1062.855 143.812022 
" style="fill:none;stroke:#000000;stroke-linecap:square;stroke-linejoin:miter;stroke-width:0.8;"/>
   </g>
   <g id="patch_20">
    <path d="M 841.84 276.421022 
L 1062.855 276.421022 
" style="fill:none;stroke:#000000;stroke-linecap:square;stroke-linejoin:miter;stroke-width:0.8;"/>
   </g>
   <g id="patch_21">
    <path d="M 841.84 143.812022 
L 1062.855 143.812022 
" style="fill:none;stroke:#000000;stroke-linecap:square;stroke-linejoin:miter;stroke-width:0.8;"/>
   </g>
   <g id="text_52">
    <!-- p=3 -->
    <defs>
     <path d="M 40.578125 39.3125 
Q 47.65625 37.796875 51.625 33 
Q 55.609375 28.21875 55.609375 21.1875 
Q 55.609375 10.40625 48.1875 4.484375 
Q 40.765625 -1.421875 27.09375 -1.421875 
Q 22.515625 -1.421875 17.65625 -0.515625 
Q 12.796875 0.390625 7.625 2.203125 
L 7.625 11.71875 
Q 11.71875 9.328125 16.59375 8.109375 
Q 21.484375 6.890625 26.8125 6.890625 
Q 36.078125 6.890625 40.9375 10.546875 
Q 45.796875 14.203125 45.796875 21.1875 
Q 45.796875 27.640625 41.28125 31.265625 
Q 36.765625 34.90625 28.71875 34.90625 
L 20.21875 34.90625 
L 20.21875 43.015625 
L 29.109375 43.015625 
Q 36.375 43.015625 40.234375 45.921875 
Q 44.09375 48.828125 44.09375 54.296875 
Q 44.09375 59.90625 40.109375 62.90625 
Q 36.140625 65.921875 28.71875 65.921875 
Q 24.65625 65.921875 20.015625 65.03125 
Q 15.375 64.15625 9.8125 62.3125 
L 9.8125 71.09375 
Q 15.4375 72.65625 20.34375 73.4375 
Q 25.25 74.21875 29.59375 74.21875 
Q 40.828125 74.21875 47.359375 69.109375 
Q 53.90625 64.015625 53.90625 55.328125 
Q 53.90625 49.265625 50.4375 45.09375 
Q 46.96875 40.921875 40.578125 39.3125 
z
" id="DejaVuSans-33"/>
    </defs>
    <g transform="translate(939.693125 137.812022)scale(0.12 -0.12)">
     <use xlink:href="#DejaVuSans-70"/>
     <use x="63.476562" xlink:href="#DejaVuSans-3d"/>
     <use x="147.265625" xlink:href="#DejaVuSans-33"/>
    </g>
   </g>
  </g>
  <g id="axes_5">
   <g id="patch_22">
    <path d="M 39.94 576.187978 
L 260.955 576.187978 
L 260.955 443.578978 
L 39.94 443.578978 
z
" style="fill:#ffffff;"/>
   </g>
   <g id="matplotlib.axis_9">
    <g id="xtick_21">
     <g id="line2d_49">
      <g>
       <use style="stroke:#000000;stroke-width:0.8;" x="39.94" xlink:href="#m339d197830" y="576.187978"/>
      </g>
     </g>
     <g id="text_53">
      <!-- −10 -->
      <g transform="translate(29.387656 590.786416)scale(0.1 -0.1)">
       <use xlink:href="#DejaVuSans-2212"/>
       <use x="83.789062" xlink:href="#DejaVuSans-31"/>
       <use x="147.412109" xlink:href="#DejaVuSans-30"/>
      </g>
     </g>
    </g>
    <g id="xtick_22">
     <g id="line2d_50">
      <g>
       <use style="stroke:#000000;stroke-width:0.8;" x="95.19375" xlink:href="#m339d197830" y="576.187978"/>
      </g>
     </g>
     <g id="text_54">
      <!-- −5 -->
      <g transform="translate(87.822656 590.786416)scale(0.1 -0.1)">
       <use xlink:href="#DejaVuSans-2212"/>
       <use x="83.789062" xlink:href="#DejaVuSans-35"/>
      </g>
     </g>
    </g>
    <g id="xtick_23">
     <g id="line2d_51">
      <g>
       <use style="stroke:#000000;stroke-width:0.8;" x="150.4475" xlink:href="#m339d197830" y="576.187978"/>
      </g>
     </g>
     <g id="text_55">
      <!-- 0 -->
      <g transform="translate(147.26625 590.786416)scale(0.1 -0.1)">
       <use xlink:href="#DejaVuSans-30"/>
      </g>
     </g>
    </g>
    <g id="xtick_24">
     <g id="line2d_52">
      <g>
       <use style="stroke:#000000;stroke-width:0.8;" x="205.70125" xlink:href="#m339d197830" y="576.187978"/>
      </g>
     </g>
     <g id="text_56">
      <!-- 5 -->
      <g transform="translate(202.52 590.786416)scale(0.1 -0.1)">
       <use xlink:href="#DejaVuSans-35"/>
      </g>
     </g>
    </g>
    <g id="xtick_25">
     <g id="line2d_53">
      <g>
       <use style="stroke:#000000;stroke-width:0.8;" x="260.955" xlink:href="#m339d197830" y="576.187978"/>
      </g>
     </g>
     <g id="text_57">
      <!-- 10 -->
      <g transform="translate(254.5925 590.786416)scale(0.1 -0.1)">
       <use xlink:href="#DejaVuSans-31"/>
       <use x="63.623047" xlink:href="#DejaVuSans-30"/>
      </g>
     </g>
    </g>
   </g>
   <g id="matplotlib.axis_10">
    <g id="ytick_29">
     <g id="line2d_54">
      <g>
       <use style="stroke:#000000;stroke-width:0.8;" x="39.94" xlink:href="#m51a0cdd443" y="576.187978"/>
      </g>
     </g>
     <g id="text_58">
      <!-- −2 -->
      <g transform="translate(18.197813 579.987197)scale(0.1 -0.1)">
       <use xlink:href="#DejaVuSans-2212"/>
       <use x="83.789062" xlink:href="#DejaVuSans-32"/>
      </g>
     </g>
    </g>
    <g id="ytick_30">
     <g id="line2d_55">
      <g>
       <use style="stroke:#000000;stroke-width:0.8;" x="39.94" xlink:href="#m51a0cdd443" y="554.086478"/>
      </g>
     </g>
     <g id="text_59">
      <!-- 0 -->
      <g transform="translate(26.5775 557.885697)scale(0.1 -0.1)">
       <use xlink:href="#DejaVuSans-30"/>
      </g>
     </g>
    </g>
    <g id="ytick_31">
     <g id="line2d_56">
      <g>
       <use style="stroke:#000000;stroke-width:0.8;" x="39.94" xlink:href="#m51a0cdd443" y="531.984978"/>
      </g>
     </g>
     <g id="text_60">
      <!-- 2 -->
      <g transform="translate(26.5775 535.784197)scale(0.1 -0.1)">
       <use xlink:href="#DejaVuSans-32"/>
      </g>
     </g>
    </g>
    <g id="ytick_32">
     <g id="line2d_57">
      <g>
       <use style="stroke:#000000;stroke-width:0.8;" x="39.94" xlink:href="#m51a0cdd443" y="509.883478"/>
      </g>
     </g>
     <g id="text_61">
      <!-- 4 -->
      <g transform="translate(26.5775 513.682697)scale(0.1 -0.1)">
       <use xlink:href="#DejaVuSans-34"/>
      </g>
     </g>
    </g>
    <g id="ytick_33">
     <g id="line2d_58">
      <g>
       <use style="stroke:#000000;stroke-width:0.8;" x="39.94" xlink:href="#m51a0cdd443" y="487.781978"/>
      </g>
     </g>
     <g id="text_62">
      <!-- 6 -->
      <g transform="translate(26.5775 491.581197)scale(0.1 -0.1)">
       <use xlink:href="#DejaVuSans-36"/>
      </g>
     </g>
    </g>
    <g id="ytick_34">
     <g id="line2d_59">
      <g>
       <use style="stroke:#000000;stroke-width:0.8;" x="39.94" xlink:href="#m51a0cdd443" y="465.680478"/>
      </g>
     </g>
     <g id="text_63">
      <!-- 8 -->
      <g transform="translate(26.5775 469.479697)scale(0.1 -0.1)">
       <use xlink:href="#DejaVuSans-38"/>
      </g>
     </g>
    </g>
    <g id="ytick_35">
     <g id="line2d_60">
      <g>
       <use style="stroke:#000000;stroke-width:0.8;" x="39.94" xlink:href="#m51a0cdd443" y="443.578978"/>
      </g>
     </g>
     <g id="text_64">
      <!-- 10 -->
      <g transform="translate(20.215 447.378197)scale(0.1 -0.1)">
       <use xlink:href="#DejaVuSans-31"/>
       <use x="63.623047" xlink:href="#DejaVuSans-30"/>
      </g>
     </g>
    </g>
   </g>
   <g id="LineCollection_5">
    <path clip-path="url(#pd5511babdd)" d="M 53.581109 443.578978 
L 62.195024 455.295436 
L 71.499939 467.54446 
L 79.027619 477.130653 
L 87.692837 487.781978 
L 95.349282 496.835605 
L 102.365407 504.824099 
L 109.662988 512.812593 
L 117.268729 520.801087 
L 126.216097 529.854713 
L 134.914317 538.438387 
L 136.711766 539.973472 
L 138.464759 541.176756 
L 140.23998 542.037387 
L 142.015201 542.567683 
L 143.790422 542.853314 
L 146.453253 543.012082 
L 153.554137 543.027076 
L 156.216968 542.932769 
L 158.527579 542.636304 
L 159.76741 542.33802 
L 161.542631 541.652531 
L 162.658749 541.038605 
L 164.205462 539.956062 
L 166.049405 538.375773 
L 169.531124 534.999763 
L 183.108274 521.333653 
L 190.833775 513.23915 
L 198.052478 505.356665 
L 205.545718 496.835605 
L 213.024036 487.996432 
L 220.588067 478.728352 
L 228.15729 469.142159 
L 237.104843 457.425701 
L 246.541424 444.644111 
L 247.313891 443.578978 
L 247.313891 443.578978 
" style="fill:none;stroke:#000000;stroke-width:1.5;"/>
   </g>
   <g id="patch_23">
    <path d="M 39.94 576.187978 
L 39.94 443.578978 
" style="fill:none;stroke:#000000;stroke-linecap:square;stroke-linejoin:miter;stroke-width:0.8;"/>
   </g>
   <g id="patch_24">
    <path d="M 260.955 576.187978 
L 260.955 443.578978 
" style="fill:none;stroke:#000000;stroke-linecap:square;stroke-linejoin:miter;stroke-width:0.8;"/>
   </g>
   <g id="patch_25">
    <path d="M 39.94 576.187978 
L 260.955 576.187978 
" style="fill:none;stroke:#000000;stroke-linecap:square;stroke-linejoin:miter;stroke-width:0.8;"/>
   </g>
   <g id="patch_26">
    <path d="M 39.94 443.578978 
L 260.955 443.578978 
" style="fill:none;stroke:#000000;stroke-linecap:square;stroke-linejoin:miter;stroke-width:0.8;"/>
   </g>
   <g id="text_65">
    <!-- p=4 -->
    <g transform="translate(137.793125 437.578978)scale(0.12 -0.12)">
     <use xlink:href="#DejaVuSans-70"/>
     <use x="63.476562" xlink:href="#DejaVuSans-3d"/>
     <use x="147.265625" xlink:href="#DejaVuSans-34"/>
    </g>
   </g>
  </g>
  <g id="axes_6">
   <g id="patch_27">
    <path d="M 307.24 576.187978 
L 528.255 576.187978 
L 528.255 443.578978 
L 307.24 443.578978 
z
" style="fill:#ffffff;"/>
   </g>
   <g id="matplotlib.axis_11">
    <g id="xtick_26">
     <g id="line2d_61">
      <g>
       <use style="stroke:#000000;stroke-width:0.8;" x="307.24" xlink:href="#m339d197830" y="576.187978"/>
      </g>
     </g>
     <g id="text_66">
      <!-- −10 -->
      <g transform="translate(296.687656 590.786416)scale(0.1 -0.1)">
       <use xlink:href="#DejaVuSans-2212"/>
       <use x="83.789062" xlink:href="#DejaVuSans-31"/>
       <use x="147.412109" xlink:href="#DejaVuSans-30"/>
      </g>
     </g>
    </g>
    <g id="xtick_27">
     <g id="line2d_62">
      <g>
       <use style="stroke:#000000;stroke-width:0.8;" x="362.49375" xlink:href="#m339d197830" y="576.187978"/>
      </g>
     </g>
     <g id="text_67">
      <!-- −5 -->
      <g transform="translate(355.122656 590.786416)scale(0.1 -0.1)">
       <use xlink:href="#DejaVuSans-2212"/>
       <use x="83.789062" xlink:href="#DejaVuSans-35"/>
      </g>
     </g>
    </g>
    <g id="xtick_28">
     <g id="line2d_63">
      <g>
       <use style="stroke:#000000;stroke-width:0.8;" x="417.7475" xlink:href="#m339d197830" y="576.187978"/>
      </g>
     </g>
     <g id="text_68">
      <!-- 0 -->
      <g transform="translate(414.56625 590.786416)scale(0.1 -0.1)">
       <use xlink:href="#DejaVuSans-30"/>
      </g>
     </g>
    </g>
    <g id="xtick_29">
     <g id="line2d_64">
      <g>
       <use style="stroke:#000000;stroke-width:0.8;" x="473.00125" xlink:href="#m339d197830" y="576.187978"/>
      </g>
     </g>
     <g id="text_69">
      <!-- 5 -->
      <g transform="translate(469.82 590.786416)scale(0.1 -0.1)">
       <use xlink:href="#DejaVuSans-35"/>
      </g>
     </g>
    </g>
    <g id="xtick_30">
     <g id="line2d_65">
      <g>
       <use style="stroke:#000000;stroke-width:0.8;" x="528.255" xlink:href="#m339d197830" y="576.187978"/>
      </g>
     </g>
     <g id="text_70">
      <!-- 10 -->
      <g transform="translate(521.8925 590.786416)scale(0.1 -0.1)">
       <use xlink:href="#DejaVuSans-31"/>
       <use x="63.623047" xlink:href="#DejaVuSans-30"/>
      </g>
     </g>
    </g>
   </g>
   <g id="matplotlib.axis_12">
    <g id="ytick_36">
     <g id="line2d_66">
      <g>
       <use style="stroke:#000000;stroke-width:0.8;" x="307.24" xlink:href="#m51a0cdd443" y="576.187978"/>
      </g>
     </g>
     <g id="text_71">
      <!-- −2 -->
      <g transform="translate(285.497813 579.987197)scale(0.1 -0.1)">
       <use xlink:href="#DejaVuSans-2212"/>
       <use x="83.789062" xlink:href="#DejaVuSans-32"/>
      </g>
     </g>
    </g>
    <g id="ytick_37">
     <g id="line2d_67">
      <g>
       <use style="stroke:#000000;stroke-width:0.8;" x="307.24" xlink:href="#m51a0cdd443" y="554.086478"/>
      </g>
     </g>
     <g id="text_72">
      <!-- 0 -->
      <g transform="translate(293.8775 557.885697)scale(0.1 -0.1)">
       <use xlink:href="#DejaVuSans-30"/>
      </g>
     </g>
    </g>
    <g id="ytick_38">
     <g id="line2d_68">
      <g>
       <use style="stroke:#000000;stroke-width:0.8;" x="307.24" xlink:href="#m51a0cdd443" y="531.984978"/>
      </g>
     </g>
     <g id="text_73">
      <!-- 2 -->
      <g transform="translate(293.8775 535.784197)scale(0.1 -0.1)">
       <use xlink:href="#DejaVuSans-32"/>
      </g>
     </g>
    </g>
    <g id="ytick_39">
     <g id="line2d_69">
      <g>
       <use style="stroke:#000000;stroke-width:0.8;" x="307.24" xlink:href="#m51a0cdd443" y="509.883478"/>
      </g>
     </g>
     <g id="text_74">
      <!-- 4 -->
      <g transform="translate(293.8775 513.682697)scale(0.1 -0.1)">
       <use xlink:href="#DejaVuSans-34"/>
      </g>
     </g>
    </g>
    <g id="ytick_40">
     <g id="line2d_70">
      <g>
       <use style="stroke:#000000;stroke-width:0.8;" x="307.24" xlink:href="#m51a0cdd443" y="487.781978"/>
      </g>
     </g>
     <g id="text_75">
      <!-- 6 -->
      <g transform="translate(293.8775 491.581197)scale(0.1 -0.1)">
       <use xlink:href="#DejaVuSans-36"/>
      </g>
     </g>
    </g>
    <g id="ytick_41">
     <g id="line2d_71">
      <g>
       <use style="stroke:#000000;stroke-width:0.8;" x="307.24" xlink:href="#m51a0cdd443" y="465.680478"/>
      </g>
     </g>
     <g id="text_76">
      <!-- 8 -->
      <g transform="translate(293.8775 469.479697)scale(0.1 -0.1)">
       <use xlink:href="#DejaVuSans-38"/>
      </g>
     </g>
    </g>
    <g id="ytick_42">
     <g id="line2d_72">
      <g>
       <use style="stroke:#000000;stroke-width:0.8;" x="307.24" xlink:href="#m51a0cdd443" y="443.578978"/>
      </g>
     </g>
     <g id="text_77">
      <!-- 10 -->
      <g transform="translate(287.515 447.378197)scale(0.1 -0.1)">
       <use xlink:href="#DejaVuSans-31"/>
       <use x="63.623047" xlink:href="#DejaVuSans-30"/>
      </g>
     </g>
    </g>
   </g>
   <g id="LineCollection_6">
    <path clip-path="url(#p4bb593a761)" d="M 315.676686 443.578978 
L 325.73028 455.828002 
L 336.045267 468.077026 
L 345.724291 479.260918 
L 355.209188 489.912243 
L 364.992906 500.563569 
L 374.698394 510.79094 
L 385.018576 521.333653 
L 402.214317 538.512277 
L 404.445004 540.506039 
L 405.982127 541.571171 
L 407.53998 542.296926 
L 409.315201 542.749375 
L 411.090422 542.947598 
L 414.640863 543.033779 
L 424.404578 542.947598 
L 426.739628 542.636304 
L 427.95502 542.296926 
L 429.512873 541.571171 
L 430.617851 540.839284 
L 432.393072 539.347407 
L 435.585681 536.245508 
L 455.726326 516.00799 
L 465.487322 505.889231 
L 474.998373 495.711289 
L 485.0629 484.586581 
L 494.874097 473.402689 
L 504.418151 462.218798 
L 515.476745 448.904641 
L 519.818314 443.578978 
L 519.818314 443.578978 
" style="fill:none;stroke:#000000;stroke-width:1.5;"/>
   </g>
   <g id="patch_28">
    <path d="M 307.24 576.187978 
L 307.24 443.578978 
" style="fill:none;stroke:#000000;stroke-linecap:square;stroke-linejoin:miter;stroke-width:0.8;"/>
   </g>
   <g id="patch_29">
    <path d="M 528.255 576.187978 
L 528.255 443.578978 
" style="fill:none;stroke:#000000;stroke-linecap:square;stroke-linejoin:miter;stroke-width:0.8;"/>
   </g>
   <g id="patch_30">
    <path d="M 307.24 576.187978 
L 528.255 576.187978 
" style="fill:none;stroke:#000000;stroke-linecap:square;stroke-linejoin:miter;stroke-width:0.8;"/>
   </g>
   <g id="patch_31">
    <path d="M 307.24 443.578978 
L 528.255 443.578978 
" style="fill:none;stroke:#000000;stroke-linecap:square;stroke-linejoin:miter;stroke-width:0.8;"/>
   </g>
   <g id="text_78">
    <!-- p=5 -->
    <g transform="translate(405.093125 437.578978)scale(0.12 -0.12)">
     <use xlink:href="#DejaVuSans-70"/>
     <use x="63.476562" xlink:href="#DejaVuSans-3d"/>
     <use x="147.265625" xlink:href="#DejaVuSans-35"/>
    </g>
   </g>
  </g>
  <g id="axes_7">
   <g id="patch_32">
    <path d="M 574.54 576.187978 
L 795.555 576.187978 
L 795.555 443.578978 
L 574.54 443.578978 
z
" style="fill:#ffffff;"/>
   </g>
   <g id="matplotlib.axis_13">
    <g id="xtick_31">
     <g id="line2d_73">
      <g>
       <use style="stroke:#000000;stroke-width:0.8;" x="574.54" xlink:href="#m339d197830" y="576.187978"/>
      </g>
     </g>
     <g id="text_79">
      <!-- −10 -->
      <g transform="translate(563.987656 590.786416)scale(0.1 -0.1)">
       <use xlink:href="#DejaVuSans-2212"/>
       <use x="83.789062" xlink:href="#DejaVuSans-31"/>
       <use x="147.412109" xlink:href="#DejaVuSans-30"/>
      </g>
     </g>
    </g>
    <g id="xtick_32">
     <g id="line2d_74">
      <g>
       <use style="stroke:#000000;stroke-width:0.8;" x="629.79375" xlink:href="#m339d197830" y="576.187978"/>
      </g>
     </g>
     <g id="text_80">
      <!-- −5 -->
      <g transform="translate(622.422656 590.786416)scale(0.1 -0.1)">
       <use xlink:href="#DejaVuSans-2212"/>
       <use x="83.789062" xlink:href="#DejaVuSans-35"/>
      </g>
     </g>
    </g>
    <g id="xtick_33">
     <g id="line2d_75">
      <g>
       <use style="stroke:#000000;stroke-width:0.8;" x="685.0475" xlink:href="#m339d197830" y="576.187978"/>
      </g>
     </g>
     <g id="text_81">
      <!-- 0 -->
      <g transform="translate(681.86625 590.786416)scale(0.1 -0.1)">
       <use xlink:href="#DejaVuSans-30"/>
      </g>
     </g>
    </g>
    <g id="xtick_34">
     <g id="line2d_76">
      <g>
       <use style="stroke:#000000;stroke-width:0.8;" x="740.30125" xlink:href="#m339d197830" y="576.187978"/>
      </g>
     </g>
     <g id="text_82">
      <!-- 5 -->
      <g transform="translate(737.12 590.786416)scale(0.1 -0.1)">
       <use xlink:href="#DejaVuSans-35"/>
      </g>
     </g>
    </g>
    <g id="xtick_35">
     <g id="line2d_77">
      <g>
       <use style="stroke:#000000;stroke-width:0.8;" x="795.555" xlink:href="#m339d197830" y="576.187978"/>
      </g>
     </g>
     <g id="text_83">
      <!-- 10 -->
      <g transform="translate(789.1925 590.786416)scale(0.1 -0.1)">
       <use xlink:href="#DejaVuSans-31"/>
       <use x="63.623047" xlink:href="#DejaVuSans-30"/>
      </g>
     </g>
    </g>
   </g>
   <g id="matplotlib.axis_14">
    <g id="ytick_43">
     <g id="line2d_78">
      <g>
       <use style="stroke:#000000;stroke-width:0.8;" x="574.54" xlink:href="#m51a0cdd443" y="576.187978"/>
      </g>
     </g>
     <g id="text_84">
      <!-- −2 -->
      <g transform="translate(552.797812 579.987197)scale(0.1 -0.1)">
       <use xlink:href="#DejaVuSans-2212"/>
       <use x="83.789062" xlink:href="#DejaVuSans-32"/>
      </g>
     </g>
    </g>
    <g id="ytick_44">
     <g id="line2d_79">
      <g>
       <use style="stroke:#000000;stroke-width:0.8;" x="574.54" xlink:href="#m51a0cdd443" y="554.086478"/>
      </g>
     </g>
     <g id="text_85">
      <!-- 0 -->
      <g transform="translate(561.1775 557.885697)scale(0.1 -0.1)">
       <use xlink:href="#DejaVuSans-30"/>
      </g>
     </g>
    </g>
    <g id="ytick_45">
     <g id="line2d_80">
      <g>
       <use style="stroke:#000000;stroke-width:0.8;" x="574.54" xlink:href="#m51a0cdd443" y="531.984978"/>
      </g>
     </g>
     <g id="text_86">
      <!-- 2 -->
      <g transform="translate(561.1775 535.784197)scale(0.1 -0.1)">
       <use xlink:href="#DejaVuSans-32"/>
      </g>
     </g>
    </g>
    <g id="ytick_46">
     <g id="line2d_81">
      <g>
       <use style="stroke:#000000;stroke-width:0.8;" x="574.54" xlink:href="#m51a0cdd443" y="509.883478"/>
      </g>
     </g>
     <g id="text_87">
      <!-- 4 -->
      <g transform="translate(561.1775 513.682697)scale(0.1 -0.1)">
       <use xlink:href="#DejaVuSans-34"/>
      </g>
     </g>
    </g>
    <g id="ytick_47">
     <g id="line2d_82">
      <g>
       <use style="stroke:#000000;stroke-width:0.8;" x="574.54" xlink:href="#m51a0cdd443" y="487.781978"/>
      </g>
     </g>
     <g id="text_88">
      <!-- 6 -->
      <g transform="translate(561.1775 491.581197)scale(0.1 -0.1)">
       <use xlink:href="#DejaVuSans-36"/>
      </g>
     </g>
    </g>
    <g id="ytick_48">
     <g id="line2d_83">
      <g>
       <use style="stroke:#000000;stroke-width:0.8;" x="574.54" xlink:href="#m51a0cdd443" y="465.680478"/>
      </g>
     </g>
     <g id="text_89">
      <!-- 8 -->
      <g transform="translate(561.1775 469.479697)scale(0.1 -0.1)">
       <use xlink:href="#DejaVuSans-38"/>
      </g>
     </g>
    </g>
    <g id="ytick_49">
     <g id="line2d_84">
      <g>
       <use style="stroke:#000000;stroke-width:0.8;" x="574.54" xlink:href="#m51a0cdd443" y="443.578978"/>
      </g>
     </g>
     <g id="text_90">
      <!-- 10 -->
      <g transform="translate(554.815 447.378197)scale(0.1 -0.1)">
       <use xlink:href="#DejaVuSans-31"/>
       <use x="63.623047" xlink:href="#DejaVuSans-30"/>
      </g>
     </g>
    </g>
   </g>
   <g id="LineCollection_7">
    <path clip-path="url(#pd6aae56f85)" d="M 575.788973 443.578978 
L 594.301706 462.751364 
L 614.649169 483.521448 
L 638.455473 507.48693 
L 672.627043 541.571171 
L 673.318969 542.103737 
L 674.373346 542.636304 
L 674.83998 542.784075 
L 676.615201 542.997915 
L 681.053253 543.035707 
L 694.36741 542.933 
L 695.721654 542.636304 
L 696.142631 542.473086 
L 697.030241 541.926428 
L 698.614556 540.506039 
L 706.793956 532.340022 
L 754.394353 484.586581 
L 775.275524 463.28393 
L 794.306027 443.578978 
L 794.306027 443.578978 
" style="fill:none;stroke:#000000;stroke-width:1.5;"/>
   </g>
   <g id="patch_33">
    <path d="M 574.54 576.187978 
L 574.54 443.578978 
" style="fill:none;stroke:#000000;stroke-linecap:square;stroke-linejoin:miter;stroke-width:0.8;"/>
   </g>
   <g id="patch_34">
    <path d="M 795.555 576.187978 
L 795.555 443.578978 
" style="fill:none;stroke:#000000;stroke-linecap:square;stroke-linejoin:miter;stroke-width:0.8;"/>
   </g>
   <g id="patch_35">
    <path d="M 574.54 576.187978 
L 795.555 576.187978 
" style="fill:none;stroke:#000000;stroke-linecap:square;stroke-linejoin:miter;stroke-width:0.8;"/>
   </g>
   <g id="patch_36">
    <path d="M 574.54 443.578978 
L 795.555 443.578978 
" style="fill:none;stroke:#000000;stroke-linecap:square;stroke-linejoin:miter;stroke-width:0.8;"/>
   </g>
   <g id="text_91">
    <!-- p=10 -->
    <g transform="translate(668.575625 437.578978)scale(0.12 -0.12)">
     <use xlink:href="#DejaVuSans-70"/>
     <use x="63.476562" xlink:href="#DejaVuSans-3d"/>
     <use x="147.265625" xlink:href="#DejaVuSans-31"/>
     <use x="210.888672" xlink:href="#DejaVuSans-30"/>
    </g>
   </g>
  </g>
  <g id="axes_8">
   <g id="patch_37">
    <path d="M 841.84 576.187978 
L 1062.855 576.187978 
L 1062.855 443.578978 
L 841.84 443.578978 
z
" style="fill:#ffffff;"/>
   </g>
   <g id="matplotlib.axis_15">
    <g id="xtick_36">
     <g id="line2d_85">
      <g>
       <use style="stroke:#000000;stroke-width:0.8;" x="841.84" xlink:href="#m339d197830" y="576.187978"/>
      </g>
     </g>
     <g id="text_92">
      <!-- −10 -->
      <g transform="translate(831.287656 590.786416)scale(0.1 -0.1)">
       <use xlink:href="#DejaVuSans-2212"/>
       <use x="83.789062" xlink:href="#DejaVuSans-31"/>
       <use x="147.412109" xlink:href="#DejaVuSans-30"/>
      </g>
     </g>
    </g>
    <g id="xtick_37">
     <g id="line2d_86">
      <g>
       <use style="stroke:#000000;stroke-width:0.8;" x="897.09375" xlink:href="#m339d197830" y="576.187978"/>
      </g>
     </g>
     <g id="text_93">
      <!-- −5 -->
      <g transform="translate(889.722656 590.786416)scale(0.1 -0.1)">
       <use xlink:href="#DejaVuSans-2212"/>
       <use x="83.789062" xlink:href="#DejaVuSans-35"/>
      </g>
     </g>
    </g>
    <g id="xtick_38">
     <g id="line2d_87">
      <g>
       <use style="stroke:#000000;stroke-width:0.8;" x="952.3475" xlink:href="#m339d197830" y="576.187978"/>
      </g>
     </g>
     <g id="text_94">
      <!-- 0 -->
      <g transform="translate(949.16625 590.786416)scale(0.1 -0.1)">
       <use xlink:href="#DejaVuSans-30"/>
      </g>
     </g>
    </g>
    <g id="xtick_39">
     <g id="line2d_88">
      <g>
       <use style="stroke:#000000;stroke-width:0.8;" x="1007.60125" xlink:href="#m339d197830" y="576.187978"/>
      </g>
     </g>
     <g id="text_95">
      <!-- 5 -->
      <g transform="translate(1004.42 590.786416)scale(0.1 -0.1)">
       <use xlink:href="#DejaVuSans-35"/>
      </g>
     </g>
    </g>
    <g id="xtick_40">
     <g id="line2d_89">
      <g>
       <use style="stroke:#000000;stroke-width:0.8;" x="1062.855" xlink:href="#m339d197830" y="576.187978"/>
      </g>
     </g>
     <g id="text_96">
      <!-- 10 -->
      <g transform="translate(1056.4925 590.786416)scale(0.1 -0.1)">
       <use xlink:href="#DejaVuSans-31"/>
       <use x="63.623047" xlink:href="#DejaVuSans-30"/>
      </g>
     </g>
    </g>
   </g>
   <g id="matplotlib.axis_16">
    <g id="ytick_50">
     <g id="line2d_90">
      <g>
       <use style="stroke:#000000;stroke-width:0.8;" x="841.84" xlink:href="#m51a0cdd443" y="576.187978"/>
      </g>
     </g>
     <g id="text_97">
      <!-- −2 -->
      <g transform="translate(820.097813 579.987197)scale(0.1 -0.1)">
       <use xlink:href="#DejaVuSans-2212"/>
       <use x="83.789062" xlink:href="#DejaVuSans-32"/>
      </g>
     </g>
    </g>
    <g id="ytick_51">
     <g id="line2d_91">
      <g>
       <use style="stroke:#000000;stroke-width:0.8;" x="841.84" xlink:href="#m51a0cdd443" y="554.086478"/>
      </g>
     </g>
     <g id="text_98">
      <!-- 0 -->
      <g transform="translate(828.4775 557.885697)scale(0.1 -0.1)">
       <use xlink:href="#DejaVuSans-30"/>
      </g>
     </g>
    </g>
    <g id="ytick_52">
     <g id="line2d_92">
      <g>
       <use style="stroke:#000000;stroke-width:0.8;" x="841.84" xlink:href="#m51a0cdd443" y="531.984978"/>
      </g>
     </g>
     <g id="text_99">
      <!-- 2 -->
      <g transform="translate(828.4775 535.784197)scale(0.1 -0.1)">
       <use xlink:href="#DejaVuSans-32"/>
      </g>
     </g>
    </g>
    <g id="ytick_53">
     <g id="line2d_93">
      <g>
       <use style="stroke:#000000;stroke-width:0.8;" x="841.84" xlink:href="#m51a0cdd443" y="509.883478"/>
      </g>
     </g>
     <g id="text_100">
      <!-- 4 -->
      <g transform="translate(828.4775 513.682697)scale(0.1 -0.1)">
       <use xlink:href="#DejaVuSans-34"/>
      </g>
     </g>
    </g>
    <g id="ytick_54">
     <g id="line2d_94">
      <g>
       <use style="stroke:#000000;stroke-width:0.8;" x="841.84" xlink:href="#m51a0cdd443" y="487.781978"/>
      </g>
     </g>
     <g id="text_101">
      <!-- 6 -->
      <g transform="translate(828.4775 491.581197)scale(0.1 -0.1)">
       <use xlink:href="#DejaVuSans-36"/>
      </g>
     </g>
    </g>
    <g id="ytick_55">
     <g id="line2d_95">
      <g>
       <use style="stroke:#000000;stroke-width:0.8;" x="841.84" xlink:href="#m51a0cdd443" y="465.680478"/>
      </g>
     </g>
     <g id="text_102">
      <!-- 8 -->
      <g transform="translate(828.4775 469.479697)scale(0.1 -0.1)">
       <use xlink:href="#DejaVuSans-38"/>
      </g>
     </g>
    </g>
    <g id="ytick_56">
     <g id="line2d_96">
      <g>
       <use style="stroke:#000000;stroke-width:0.8;" x="841.84" xlink:href="#m51a0cdd443" y="443.578978"/>
      </g>
     </g>
     <g id="text_103">
      <!-- 10 -->
      <g transform="translate(822.115 447.378197)scale(0.1 -0.1)">
       <use xlink:href="#DejaVuSans-31"/>
       <use x="63.623047" xlink:href="#DejaVuSans-30"/>
      </g>
     </g>
    </g>
   </g>
   <g id="LineCollection_8">
    <path clip-path="url(#pb3777b5bfb)" d="M 841.84 443.578978 
L 941.252369 542.920796 
L 942.13998 543.035536 
L 962.55502 543.035536 
L 963.442631 542.920796 
L 964.330241 542.103737 
L 1062.855 443.578978 
L 1062.855 443.578978 
" style="fill:none;stroke:#000000;stroke-width:1.5;"/>
   </g>
   <g id="patch_38">
    <path d="M 841.84 576.187978 
L 841.84 443.578978 
" style="fill:none;stroke:#000000;stroke-linecap:square;stroke-linejoin:miter;stroke-width:0.8;"/>
   </g>
   <g id="patch_39">
    <path d="M 1062.855 576.187978 
L 1062.855 443.578978 
" style="fill:none;stroke:#000000;stroke-linecap:square;stroke-linejoin:miter;stroke-width:0.8;"/>
   </g>
   <g id="patch_40">
    <path d="M 841.84 576.187978 
L 1062.855 576.187978 
" style="fill:none;stroke:#000000;stroke-linecap:square;stroke-linejoin:miter;stroke-width:0.8;"/>
   </g>
   <g id="patch_41">
    <path d="M 841.84 443.578978 
L 1062.855 443.578978 
" style="fill:none;stroke:#000000;stroke-linecap:square;stroke-linejoin:miter;stroke-width:0.8;"/>
   </g>
   <g id="text_104">
    <!-- sup, p=$\infty$ -->
    <defs>
     <path d="M 44.28125 53.078125 
L 44.28125 44.578125 
Q 40.484375 46.53125 36.375 47.5 
Q 32.28125 48.484375 27.875 48.484375 
Q 21.1875 48.484375 17.84375 46.4375 
Q 14.5 44.390625 14.5 40.28125 
Q 14.5 37.15625 16.890625 35.375 
Q 19.28125 33.59375 26.515625 31.984375 
L 29.59375 31.296875 
Q 39.15625 29.25 43.1875 25.515625 
Q 47.21875 21.78125 47.21875 15.09375 
Q 47.21875 7.46875 41.1875 3.015625 
Q 35.15625 -1.421875 24.609375 -1.421875 
Q 20.21875 -1.421875 15.453125 -0.5625 
Q 10.6875 0.296875 5.421875 2 
L 5.421875 11.28125 
Q 10.40625 8.6875 15.234375 7.390625 
Q 20.0625 6.109375 24.8125 6.109375 
Q 31.15625 6.109375 34.5625 8.28125 
Q 37.984375 10.453125 37.984375 14.40625 
Q 37.984375 18.0625 35.515625 20.015625 
Q 33.0625 21.96875 24.703125 23.78125 
L 21.578125 24.515625 
Q 13.234375 26.265625 9.515625 29.90625 
Q 5.8125 33.546875 5.8125 39.890625 
Q 5.8125 47.609375 11.28125 51.796875 
Q 16.75 56 26.8125 56 
Q 31.78125 56 36.171875 55.265625 
Q 40.578125 54.546875 44.28125 53.078125 
z
" id="DejaVuSans-73"/>
     <path d="M 8.5 21.578125 
L 8.5 54.6875 
L 17.484375 54.6875 
L 17.484375 21.921875 
Q 17.484375 14.15625 20.5 10.265625 
Q 23.53125 6.390625 29.59375 6.390625 
Q 36.859375 6.390625 41.078125 11.03125 
Q 45.3125 15.671875 45.3125 23.6875 
L 45.3125 54.6875 
L 54.296875 54.6875 
L 54.296875 0 
L 45.3125 0 
L 45.3125 8.40625 
Q 42.046875 3.421875 37.71875 1 
Q 33.40625 -1.421875 27.6875 -1.421875 
Q 18.265625 -1.421875 13.375 4.4375 
Q 8.5 10.296875 8.5 21.578125 
z
M 31.109375 56 
z
" id="DejaVuSans-75"/>
     <path d="M 45.5625 17.046875 
Q 44.046875 18.796875 41.65625 22.90625 
Q 38.375 17.046875 35.5 14.453125 
Q 31.890625 11.328125 26.265625 11.328125 
Q 19.671875 11.328125 15.328125 16.265625 
Q 10.75 21.4375 10.75 29.984375 
Q 10.75 38.1875 15.328125 43.75 
Q 19.4375 48.6875 26.375 48.6875 
Q 29.9375 48.6875 32.5625 47.21875 
Q 35.640625 45.609375 37.75 42.828125 
Q 39.703125 40.328125 41.65625 36.96875 
Q 44.921875 42.828125 47.796875 45.40625 
Q 51.421875 48.53125 57.03125 48.53125 
Q 63.625 48.53125 67.96875 43.609375 
Q 72.5625 38.421875 72.5625 29.890625 
Q 72.5625 21.6875 67.96875 16.109375 
Q 63.875 11.1875 56.9375 11.1875 
Q 53.375 11.1875 50.734375 12.640625 
Q 48.09375 13.96875 45.5625 17.046875 
z
M 25.734375 17.71875 
Q 33.796875 17.71875 38.625 29.4375 
Q 32.421875 42.234375 25.734375 42.234375 
Q 20.84375 42.234375 18.359375 38.71875 
Q 15.671875 34.96875 15.671875 29.984375 
Q 15.671875 24.515625 18.359375 21.140625 
Q 21.09375 17.71875 25.734375 17.71875 
z
M 57.5625 42.140625 
Q 50.296875 42.140625 44.671875 30.421875 
Q 50.828125 17.625 57.5625 17.625 
Q 62.453125 17.625 64.9375 21.140625 
Q 67.625 24.90625 67.625 29.890625 
Q 67.625 35.359375 64.9375 38.71875 
Q 62.203125 42.140625 57.5625 42.140625 
z
" id="DejaVuSans-221e"/>
    </defs>
    <g transform="translate(923.9075 437.578978)scale(0.12 -0.12)">
     <use xlink:href="#DejaVuSans-73"/>
     <use transform="translate(52.099609 0)" xlink:href="#DejaVuSans-75"/>
     <use transform="translate(115.478516 0)" xlink:href="#DejaVuSans-70"/>
     <use transform="translate(178.955078 0)" xlink:href="#DejaVuSans-2c"/>
     <use transform="translate(210.742188 0)" xlink:href="#DejaVuSans-20"/>
     <use transform="translate(242.529297 0)" xlink:href="#DejaVuSans-70"/>
     <use transform="translate(306.005859 0)" xlink:href="#DejaVuSans-3d"/>
     <use transform="translate(389.794922 0)" xlink:href="#DejaVuSans-221e"/>
    </g>
   </g>
  </g>
 </g>
 <defs>
  <clipPath id="p6e359c92d8">
   <rect height="132.609" width="221.015" x="39.94" y="143.812022"/>
  </clipPath>
  <clipPath id="pce2989b51c">
   <rect height="132.609" width="221.015" x="307.24" y="143.812022"/>
  </clipPath>
  <clipPath id="pf5c7e31f75">
   <rect height="132.609" width="221.015" x="574.54" y="143.812022"/>
  </clipPath>
  <clipPath id="pbdb7068ac1">
   <rect height="132.609" width="221.015" x="841.84" y="143.812022"/>
  </clipPath>
  <clipPath id="pd5511babdd">
   <rect height="132.609" width="221.015" x="39.94" y="443.578978"/>
  </clipPath>
  <clipPath id="p4bb593a761">
   <rect height="132.609" width="221.015" x="307.24" y="443.578978"/>
  </clipPath>
  <clipPath id="pd6aae56f85">
   <rect height="132.609" width="221.015" x="574.54" y="443.578978"/>
  </clipPath>
  <clipPath id="pb3777b5bfb">
   <rect height="132.609" width="221.015" x="841.84" y="443.578978"/>
  </clipPath>
 </defs>
</svg>
