<?xml version="1.0" encoding="UTF-8" standalone="no"?>
<!-- Created with matplotlib (http://matplotlib.org/) -->

<svg
   xmlns:dc="http://purl.org/dc/elements/1.1/"
   xmlns:cc="http://creativecommons.org/ns#"
   xmlns:rdf="http://www.w3.org/1999/02/22-rdf-syntax-ns#"
   xmlns:svg="http://www.w3.org/2000/svg"
   xmlns="http://www.w3.org/2000/svg"
   xmlns:xlink="http://www.w3.org/1999/xlink"
   xmlns:sodipodi="http://sodipodi.sourceforge.net/DTD/sodipodi-0.dtd"
   xmlns:inkscape="http://www.inkscape.org/namespaces/inkscape"
   height="1000pt"
   version="1.1"
   viewBox="0 0 3000 1000"
   width="3000pt"
   id="svg187"
   sodipodi:docname="unitCircles.svg"
   inkscape:version="0.92.3 (2405546, 2018-03-11)">
  <metadata
     id="metadata191">
    <rdf:RDF>
      <cc:Work
         rdf:about="">
        <dc:format>image/svg+xml</dc:format>
        <dc:type
           rdf:resource="http://purl.org/dc/dcmitype/StillImage" />
        <dc:title></dc:title>
      </cc:Work>
    </rdf:RDF>
  </metadata>
  <sodipodi:namedview
     pagecolor="#ffffff"
     bordercolor="#666666"
     borderopacity="1"
     objecttolerance="10"
     gridtolerance="10"
     guidetolerance="10"
     inkscape:pageopacity="0"
     inkscape:pageshadow="2"
     inkscape:window-width="1853"
     inkscape:window-height="1016"
     id="namedview189"
     showgrid="false"
     inkscape:zoom="0.19731516"
     inkscape:cx="889.44002"
     inkscape:cy="-570.88549"
     inkscape:window-x="67"
     inkscape:window-y="27"
     inkscape:window-maximized="1"
     inkscape:current-layer="svg187" />
  <defs
     id="defs4"
     style="stroke-linecap:butt;stroke-linejoin:round">
    <style
       type="text/css"
       id="style2">
*{stroke-linecap:butt;stroke-linejoin:round;}
  </style>
  </defs>
  <g
     id="figure_1"
     style="stroke-linecap:butt;stroke-linejoin:round"
     transform="matrix(2.1623932,0,0,2.1623932,34.209235,80.900478)">
    <g
       id="patch_1"
       style="stroke-linecap:butt;stroke-linejoin:round">
      <path
         d="M 0,360 H 1334.16 V 0 H 0 Z"
         style="fill:#ffffff;stroke-linecap:butt;stroke-linejoin:round"
         id="path6"
         inkscape:connector-curvature="0" />
    </g>
    <g
       id="axes_1"
       style="stroke-linecap:butt;stroke-linejoin:round">
      <g
         id="LineCollection_1"
         style="stroke-linecap:butt;stroke-linejoin:round">
        <path
           clip-path="url(#pcb9c260091)"
           d="m 229.18035,212.68676 -30.24991,-30.24992 v -1.27368 l 30.24991,-30.24992 h 1.27368 l 30.24992,30.24992 v 1.27368 l -30.24992,30.24992 h -1.27368 v 0"
           style="fill:none;stroke:#000000;stroke-width:1.5;stroke-linecap:butt;stroke-linejoin:round"
           id="path9"
           inkscape:connector-curvature="0" />
      </g>
      <g
         id="text_1"
         style="stroke-linecap:butt;stroke-linejoin:round">
        <!-- taxicab, p=1 -->
        <defs
           id="defs23">
          <path
             d="M 18.3125,70.21875 V 54.6875 h 18.5 v -6.984375 h -18.5 v -29.6875 q 0,-6.6875 1.828125,-8.59375 1.828125,-1.90625 7.453125,-1.90625 H 36.8125 V 0 H 27.59375 Q 17.1875,0 13.234375,3.875 9.28125,7.765625 9.28125,18.015625 v 29.6875 H 2.6875 V 54.6875 h 6.59375 v 15.53125 z"
             id="DejaVuSans-74"
             inkscape:connector-curvature="0"
             style="stroke-linecap:butt;stroke-linejoin:round" />
          <path
             d="m 34.28125,27.484375 q -10.890625,0 -15.09375,-2.484375 -4.203125,-2.484375 -4.203125,-8.5 0,-4.78125 3.15625,-7.59375 3.15625,-2.796875 8.5625,-2.796875 7.484375,0 12,5.296875 4.515625,5.296875 4.515625,14.078125 v 2 z m 17.921875,3.71875 V 0 H 43.21875 v 8.296875 q -3.078125,-4.96875 -7.671875,-7.34375 -4.59375,-2.375 -11.234375,-2.375 -8.390625,0 -13.359375,4.71875 Q 6,8.015625 6,15.921875 q 0,9.21875 6.171875,13.90625 6.1875,4.6875 18.4375,4.6875 H 43.21875 v 0.890625 q 0,6.203125 -4.078125,9.59375 -4.078125,3.390625 -11.453125,3.390625 -4.6875,0 -9.140625,-1.125 -4.4375,-1.125 -8.53125,-3.375 v 8.3125 q 4.921875,1.90625 9.5625,2.84375 Q 24.21875,56 28.609375,56 q 11.875,0 17.734375,-6.15625 5.859375,-6.140625 5.859375,-18.640625 z"
             id="DejaVuSans-61"
             inkscape:connector-curvature="0"
             style="stroke-linecap:butt;stroke-linejoin:round" />
          <path
             d="M 54.890625,54.6875 35.109375,28.078125 55.90625,0 H 45.3125 L 29.390625,21.484375 13.484375,0 H 2.875 L 24.125,28.609375 4.6875,54.6875 h 10.59375 l 14.5,-19.484375 14.5,19.484375 z"
             id="DejaVuSans-78"
             inkscape:connector-curvature="0"
             style="stroke-linecap:butt;stroke-linejoin:round" />
          <path
             d="M 9.421875,54.6875 H 18.40625 V 0 H 9.421875 Z m 0,21.296875 H 18.40625 V 64.59375 H 9.421875 Z"
             id="DejaVuSans-69"
             inkscape:connector-curvature="0"
             style="stroke-linecap:butt;stroke-linejoin:round" />
          <path
             d="M 48.78125,52.59375 V 44.1875 q -3.8125,2.109375 -7.640625,3.15625 -3.828125,1.046875 -7.734375,1.046875 -8.75,0 -13.59375,-5.546875 -4.828125,-5.53125 -4.828125,-15.546875 0,-10.015625 4.828125,-15.5625 4.84375,-5.53125 13.59375,-5.53125 3.90625,0 7.734375,1.046875 3.828125,1.046875 7.640625,3.15625 v -8.3125 q -3.765625,-1.75 -7.796875,-2.625 -4.015625,-0.890625 -8.5625,-0.890625 -12.359375,0 -19.640625,7.765625 -7.265625,7.765625 -7.265625,20.953125 0,13.375 7.34375,21.03125 Q 20.21875,56 33.015625,56 q 4.140625,0 8.09375,-0.859375 3.953125,-0.84375 7.671875,-2.546875 z"
             id="DejaVuSans-63"
             inkscape:connector-curvature="0"
             style="stroke-linecap:butt;stroke-linejoin:round" />
          <path
             d="m 48.6875,27.296875 q 0,9.90625 -4.078125,15.546875 -4.078125,5.640625 -11.203125,5.640625 -7.140625,0 -11.21875,-5.640625 -4.078125,-5.640625 -4.078125,-15.546875 0,-9.90625 4.078125,-15.546875 4.078125,-5.640625 11.21875,-5.640625 7.125,0 11.203125,5.640625 4.078125,5.640625 4.078125,15.546875 z m -30.578125,19.09375 q 2.84375,4.875 7.15625,7.234375 Q 29.59375,56 35.59375,56 q 9.96875,0 16.1875,-7.90625 6.234375,-7.90625 6.234375,-20.796875 0,-12.890625 -6.234375,-20.8125 -6.21875,-7.90625 -16.1875,-7.90625 -6,0 -10.328125,2.375 -4.3125,2.375 -7.15625,7.25 V 0 h -9.03125 v 75.984375 h 9.03125 z"
             id="DejaVuSans-62"
             inkscape:connector-curvature="0"
             style="stroke-linecap:butt;stroke-linejoin:round" />
          <path
             d="M 11.71875,12.40625 H 22.015625 V 4 l -8,-15.625 H 7.71875 l 4,15.625 z"
             id="DejaVuSans-2c"
             inkscape:connector-curvature="0"
             style="stroke-linecap:butt;stroke-linejoin:round" />
          <path
             id="DejaVuSans-20"
             d=""
             inkscape:connector-curvature="0"
             style="stroke-linecap:butt;stroke-linejoin:round" />
          <path
             d="m 18.109375,8.203125 v -29 H 9.078125 V 54.6875 h 9.03125 v -8.296875 q 2.84375,4.875 7.15625,7.234375 Q 29.59375,56 35.59375,56 q 9.96875,0 16.1875,-7.90625 6.234375,-7.90625 6.234375,-20.796875 0,-12.890625 -6.234375,-20.8125 -6.21875,-7.90625 -16.1875,-7.90625 -6,0 -10.328125,2.375 -4.3125,2.375 -7.15625,7.25 z M 48.6875,27.296875 q 0,9.90625 -4.078125,15.546875 -4.078125,5.640625 -11.203125,5.640625 -7.140625,0 -11.21875,-5.640625 -4.078125,-5.640625 -4.078125,-15.546875 0,-9.90625 4.078125,-15.546875 4.078125,-5.640625 11.21875,-5.640625 7.125,0 11.203125,5.640625 4.078125,5.640625 4.078125,15.546875 z"
             id="DejaVuSans-70"
             inkscape:connector-curvature="0"
             style="stroke-linecap:butt;stroke-linejoin:round" />
          <path
             d="M 10.59375,45.40625 H 73.1875 V 37.203125 H 10.59375 Z m 0,-19.921875 H 73.1875 V 17.1875 H 10.59375 Z"
             id="DejaVuSans-3d"
             inkscape:connector-curvature="0"
             style="stroke-linecap:butt;stroke-linejoin:round" />
          <path
             d="m 12.40625,8.296875 h 16.109375 v 55.625 L 10.984375,60.40625 v 8.984375 l 17.4375,3.515625 H 38.28125 V 8.296875 H 54.390625 V 0 H 12.40625 Z"
             id="DejaVuSans-31"
             inkscape:connector-curvature="0"
             style="stroke-linecap:butt;stroke-linejoin:round" />
        </defs>
        <g
           transform="matrix(0.12,0,0,-0.12,191.31688,112.7528)"
           id="g49"
           style="stroke-linecap:butt;stroke-linejoin:round">
          <use
             xlink:href="#DejaVuSans-74"
             id="use25"
             style="stroke-linecap:butt;stroke-linejoin:round"
             x="0"
             y="0"
             width="100%"
             height="100%" />
          <use
             x="39.208984"
             xlink:href="#DejaVuSans-61"
             id="use27"
             style="stroke-linecap:butt;stroke-linejoin:round"
             y="0"
             width="100%"
             height="100%" />
          <use
             x="100.48828"
             xlink:href="#DejaVuSans-78"
             id="use29"
             style="stroke-linecap:butt;stroke-linejoin:round"
             y="0"
             width="100%"
             height="100%" />
          <use
             x="159.66797"
             xlink:href="#DejaVuSans-69"
             id="use31"
             style="stroke-linecap:butt;stroke-linejoin:round"
             y="0"
             width="100%"
             height="100%" />
          <use
             x="187.45117"
             xlink:href="#DejaVuSans-63"
             id="use33"
             style="stroke-linecap:butt;stroke-linejoin:round"
             y="0"
             width="100%"
             height="100%" />
          <use
             x="242.43164"
             xlink:href="#DejaVuSans-61"
             id="use35"
             style="stroke-linecap:butt;stroke-linejoin:round"
             y="0"
             width="100%"
             height="100%" />
          <use
             x="303.71094"
             xlink:href="#DejaVuSans-62"
             id="use37"
             style="stroke-linecap:butt;stroke-linejoin:round"
             y="0"
             width="100%"
             height="100%" />
          <use
             x="367.1875"
             xlink:href="#DejaVuSans-2c"
             id="use39"
             style="stroke-linecap:butt;stroke-linejoin:round"
             y="0"
             width="100%"
             height="100%" />
          <use
             x="398.97461"
             xlink:href="#DejaVuSans-20"
             id="use41"
             style="stroke-linecap:butt;stroke-linejoin:round"
             y="0"
             width="100%"
             height="100%" />
          <use
             x="430.76172"
             xlink:href="#DejaVuSans-70"
             id="use43"
             style="stroke-linecap:butt;stroke-linejoin:round"
             y="0"
             width="100%"
             height="100%" />
          <use
             x="494.23828"
             xlink:href="#DejaVuSans-3d"
             id="use45"
             style="stroke-linecap:butt;stroke-linejoin:round"
             y="0"
             width="100%"
             height="100%" />
          <use
             x="578.02734"
             xlink:href="#DejaVuSans-31"
             id="use47"
             style="stroke-linecap:butt;stroke-linejoin:round"
             y="0"
             width="100%"
             height="100%" />
        </g>
      </g>
    </g>
    <g
       id="axes_2"
       style="stroke-linecap:butt;stroke-linejoin:round">
      <g
         id="LineCollection_2"
         style="stroke-linecap:butt;stroke-linejoin:round">
        <path
           clip-path="url(#p6c392ce141)"
           d="m 379.21994,213.00925 -2.54736,-0.81356 -2.54736,-1.11434 -2.54736,-1.36951 -2.82562,-1.80138 -2.26911,-1.65669 -2.62044,-2.16436 -2.70561,-2.54736 -2.38055,-2.54736 -2.48284,-3.05185 -1.46622,-2.04287 -1.60885,-2.54737 -1.36951,-2.54736 -1.11434,-2.54736 -0.81356,-2.54736 -0.25397,-1.27368 v -1.27368 l 0.61805,-2.54736 0.97273,-2.54736 1.24493,-2.54737 1.4904,-2.54736 2.30034,-3.31655 1.39997,-1.77817 2.42107,-2.74423 2.54736,-2.53551 2.7023,-2.36234 2.39243,-1.84543 2.94909,-1.97562 2.20395,-1.27368 2.63157,-1.27368 2.40483,-0.91368 2.54736,-0.61804 h 1.27368 l 2.54736,0.61804 2.54737,0.97274 2.54736,1.24493 2.54736,1.49039 3.31656,2.30035 1.77816,1.39997 2.74423,2.42107 2.53551,2.54736 2.36235,2.70229 1.84542,2.39243 1.97562,2.9491 1.27368,2.20394 1.27368,2.63158 0.91368,2.40483 0.61804,2.54736 v 1.27368 l -0.61804,2.54736 -0.97274,2.54736 -1.24493,2.54736 -1.49039,2.54737 -2.30034,3.31655 -1.39997,1.77817 -2.42108,2.74423 -2.54736,2.53551 -2.70229,2.36234 -2.39243,1.84543 -2.94909,1.97561 -2.20395,1.27369 -2.63158,1.27368 -2.40483,0.91368 -2.54736,0.61804 h -1.27368 l -1.27368,-0.25397 v 0"
           style="fill:none;stroke:#000000;stroke-width:1.5;stroke-linecap:butt;stroke-linejoin:round"
           id="path53"
           inkscape:connector-curvature="0" />
      </g>
      <g
         id="text_2"
         style="stroke-linecap:butt;stroke-linejoin:round">
        <!-- p=1.5 -->
        <defs
           id="defs58">
          <path
             d="M 10.6875,12.40625 H 21 V 0 H 10.6875 Z"
             id="DejaVuSans-2e"
             inkscape:connector-curvature="0"
             style="stroke-linecap:butt;stroke-linejoin:round" />
          <path
             d="m 10.796875,72.90625 h 38.71875 v -8.3125 h -29.6875 V 46.734375 q 2.140625,0.734375 4.28125,1.09375 2.15625,0.359375 4.3125,0.359375 Q 40.625,48.1875 47.75,41.5 54.890625,34.8125 54.890625,23.390625 54.890625,11.625 47.5625,5.09375 40.234375,-1.421875 26.90625,-1.421875 q -4.59375,0 -9.359375,0.78125 -4.75,0.78125 -9.828125,2.34375 V 11.625 q 4.390625,-2.390625 9.078125,-3.5625 4.6875,-1.171875 9.90625,-1.171875 8.453125,0 13.375,4.4375 4.9375,4.4375 4.9375,12.0625 0,7.609375 -4.9375,12.046875 -4.921875,4.453125 -13.375,4.453125 -3.953125,0 -7.890625,-0.875 -3.921875,-0.875 -8.015625,-2.734375 z"
             id="DejaVuSans-35"
             inkscape:connector-curvature="0"
             style="stroke-linecap:butt;stroke-linejoin:round" />
        </defs>
        <g
           transform="matrix(0.12,0,0,-0.12,362.75171,112.7528)"
           id="g70"
           style="stroke-linecap:butt;stroke-linejoin:round">
          <use
             xlink:href="#DejaVuSans-70"
             id="use60"
             style="stroke-linecap:butt;stroke-linejoin:round"
             x="0"
             y="0"
             width="100%"
             height="100%" />
          <use
             x="63.476562"
             xlink:href="#DejaVuSans-3d"
             id="use62"
             style="stroke-linecap:butt;stroke-linejoin:round"
             y="0"
             width="100%"
             height="100%" />
          <use
             x="147.26562"
             xlink:href="#DejaVuSans-31"
             id="use64"
             style="stroke-linecap:butt;stroke-linejoin:round"
             y="0"
             width="100%"
             height="100%" />
          <use
             x="210.88867"
             xlink:href="#DejaVuSans-2e"
             id="use66"
             style="stroke-linecap:butt;stroke-linejoin:round"
             y="0"
             width="100%"
             height="100%" />
          <use
             x="242.67578"
             xlink:href="#DejaVuSans-35"
             id="use68"
             style="stroke-linecap:butt;stroke-linejoin:round"
             y="0"
             width="100%"
             height="100%" />
        </g>
      </g>
    </g>
    <g
       id="axes_3"
       style="stroke-linecap:butt;stroke-linejoin:round">
      <g
         id="LineCollection_3"
         style="stroke-linecap:butt;stroke-linejoin:round">
        <path
           clip-path="url(#pcd0705cfb1)"
           d="m 527.98585,213.0068 -2.54736,-0.47172 -2.87233,-0.80358 -2.2224,-0.82353 -2.54736,-1.19546 -2.54736,-1.49296 -2.21342,-1.58278 -1.60762,-1.34126 -2.54736,-2.55594 -1.98135,-2.4712 -1.66232,-2.54736 -1.33897,-2.54736 -1.05987,-2.54736 -0.81101,-2.54737 -0.58143,-2.54736 -0.3643,-2.54736 -0.15482,-2.54736 0.0515,-2.54736 0.26045,-2.55735 0.47011,-2.53737 0.80357,-2.87233 0.82353,-2.2224 1.19546,-2.54736 1.49296,-2.54736 1.58278,-2.21342 1.34126,-1.60762 2.55594,-2.54736 2.4712,-1.98135 2.54736,-1.66232 2.54736,-1.33897 2.54737,-1.05987 2.54736,-0.81102 2.54736,-0.58143 2.54736,-0.36429 2.54736,-0.15482 2.54736,0.0515 2.55735,0.26046 2.53738,0.4701 2.87232,0.80358 2.2224,0.82353 2.54736,1.19546 2.54736,1.49296 2.21342,1.58278 1.60762,1.34126 2.54737,2.55594 1.98134,2.4712 1.66232,2.54736 1.33897,2.54736 1.05987,2.54736 0.81102,2.54736 0.58143,2.54737 0.36429,2.54736 0.15482,2.54736 -0.0515,2.54736 -0.26046,2.55734 -0.4701,2.53738 -0.80358,2.87233 -0.82353,2.2224 -1.19545,2.54736 -1.49297,2.54736 -1.58277,2.21342 -1.34127,1.60762 -2.55594,2.54736 -2.4712,1.98135 -2.54736,1.66232 -2.54736,1.33897 -2.54736,1.05987 -2.54736,0.81101 -2.54737,0.58144 -2.54736,0.36429 -2.54736,0.15482 -2.54736,-0.0515 -2.54736,-0.25883 v 0"
           style="fill:none;stroke:#000000;stroke-width:1.5;stroke-linecap:butt;stroke-linejoin:round"
           id="path74"
           inkscape:connector-curvature="0" />
      </g>
      <g
         id="text_3"
         style="stroke-linecap:butt;stroke-linejoin:round">
        <!-- p=2 -->
        <defs
           id="defs78">
          <path
             d="M 19.1875,8.296875 H 53.609375 V 0 H 7.328125 v 8.296875 q 5.609375,5.8125 15.296875,15.59375 9.703125,9.796875 12.1875,12.640625 4.734375,5.3125 6.609375,9 1.890625,3.6875 1.890625,7.25 0,5.8125 -4.078125,9.46875 -4.078125,3.671875 -10.625,3.671875 -4.640625,0 -9.796875,-1.609375 -5.140625,-1.609375 -11,-4.890625 v 9.96875 Q 13.765625,71.78125 18.9375,73 q 5.1875,1.21875 9.484375,1.21875 11.328125,0 18.0625,-5.671875 6.734375,-5.65625 6.734375,-15.125 0,-4.5 -1.6875,-8.53125 Q 49.859375,40.875 45.40625,35.40625 44.1875,33.984375 37.640625,27.21875 31.109375,20.453125 19.1875,8.296875 Z"
             id="DejaVuSans-32"
             inkscape:connector-curvature="0"
             style="stroke-linecap:butt;stroke-linejoin:round" />
        </defs>
        <g
           transform="matrix(0.12,0,0,-0.12,519.78936,112.7528)"
           id="g86"
           style="stroke-linecap:butt;stroke-linejoin:round">
          <use
             xlink:href="#DejaVuSans-70"
             id="use80"
             style="stroke-linecap:butt;stroke-linejoin:round"
             x="0"
             y="0"
             width="100%"
             height="100%" />
          <use
             x="63.476562"
             xlink:href="#DejaVuSans-3d"
             id="use82"
             style="stroke-linecap:butt;stroke-linejoin:round"
             y="0"
             width="100%"
             height="100%" />
          <use
             x="147.26562"
             xlink:href="#DejaVuSans-32"
             id="use84"
             style="stroke-linecap:butt;stroke-linejoin:round"
             y="0"
             width="100%"
             height="100%" />
        </g>
      </g>
    </g>
    <g
       id="axes_4"
       style="stroke-linecap:butt;stroke-linejoin:round">
      <g
         id="LineCollection_4"
         style="stroke-linecap:butt;stroke-linejoin:round">
        <path
           clip-path="url(#p1a009de03c)"
           d="m 674.20439,213.02842 -2.54736,-0.31116 -2.54736,-0.48638 -2.54736,-0.71541 -2.62553,-1.05765 -2.46919,-1.4019 -1.53027,-1.14546 -1.37519,-1.27369 -1.1267,-1.27368 -1.06256,-1.47137 -1.31217,-2.34967 -1.01917,-2.54736 -0.71541,-2.54736 -0.48638,-2.54736 -0.41476,-3.82105 -0.16181,-3.82104 -0.0189,-7.64208 0.18074,-5.09473 0.41476,-3.82104 0.48638,-2.54736 0.71541,-2.54736 1.05765,-2.62553 1.4019,-2.46919 1.14546,-1.53027 1.27369,-1.37519 1.27368,-1.1267 1.47137,-1.06257 2.34967,-1.31216 2.54736,-1.01917 2.54736,-0.71541 2.54736,-0.48638 3.82104,-0.41476 3.82105,-0.16181 7.64208,-0.0189 5.09473,0.18073 3.82104,0.41476 2.54736,0.48638 2.54736,0.71541 2.62553,1.05765 2.46919,1.4019 1.53027,1.14546 1.37519,1.27369 1.1267,1.27368 1.06256,1.47137 1.31217,2.34967 1.01917,2.54736 0.71541,2.54736 0.48638,2.54736 0.41476,3.82104 0.16181,3.82105 0.0189,7.64208 -0.18074,5.09472 -0.41476,3.82105 -0.48638,2.54736 -0.71541,2.54736 -1.05765,2.62553 -1.4019,2.46919 -1.14547,1.53027 -1.27368,1.37519 -1.27368,1.1267 -1.47137,1.06256 -2.34967,1.31217 -2.54736,1.01917 -2.54736,0.71541 -2.54736,0.48638 -3.82104,0.41476 -3.82105,0.16181 -7.64208,0.0189 -5.09473,-0.18073 -1.27368,-0.1036 v 0"
           style="fill:none;stroke:#000000;stroke-width:1.5;stroke-linecap:butt;stroke-linejoin:round"
           id="path90"
           inkscape:connector-curvature="0" />
      </g>
      <g
         id="text_4"
         style="stroke-linecap:butt;stroke-linejoin:round">
        <!-- p=3 -->
        <defs
           id="defs94">
          <path
             d="M 40.578125,39.3125 Q 47.65625,37.796875 51.625,33 q 3.984375,-4.78125 3.984375,-11.8125 0,-10.78125 -7.421875,-16.703125 -7.421875,-5.90625 -21.09375,-5.90625 -4.578125,0 -9.4375,0.90625 -4.859375,0.90625 -10.03125,2.71875 v 9.515625 q 4.09375,-2.390625 8.96875,-3.609375 4.890625,-1.21875 10.21875,-1.21875 9.265625,0 14.125,3.65625 4.859375,3.65625 4.859375,10.640625 0,6.453125 -4.515625,10.078125 -4.515625,3.640625 -12.5625,3.640625 h -8.5 v 8.109375 h 8.890625 q 7.265625,0 11.125,2.90625 3.859375,2.90625 3.859375,8.375 0,5.609375 -3.984375,8.609375 -3.96875,3.015625 -11.390625,3.015625 -4.0625,0 -8.703125,-0.890625 Q 15.375,64.15625 9.8125,62.3125 v 8.78125 q 5.625,1.5625 10.53125,2.34375 4.90625,0.78125 9.25,0.78125 11.234375,0 17.765625,-5.109375 6.546875,-5.09375 6.546875,-13.78125 0,-6.0625 -3.46875,-10.234375 -3.46875,-4.171875 -9.859375,-5.78125 z"
             id="DejaVuSans-33"
             inkscape:connector-curvature="0"
             style="stroke-linecap:butt;stroke-linejoin:round" />
        </defs>
        <g
           transform="matrix(0.12,0,0,-0.12,671.10262,112.7528)"
           id="g102"
           style="stroke-linecap:butt;stroke-linejoin:round">
          <use
             xlink:href="#DejaVuSans-70"
             id="use96"
             style="stroke-linecap:butt;stroke-linejoin:round"
             x="0"
             y="0"
             width="100%"
             height="100%" />
          <use
             x="63.476562"
             xlink:href="#DejaVuSans-3d"
             id="use98"
             style="stroke-linecap:butt;stroke-linejoin:round"
             y="0"
             width="100%"
             height="100%" />
          <use
             x="147.26562"
             xlink:href="#DejaVuSans-33"
             id="use100"
             style="stroke-linecap:butt;stroke-linejoin:round"
             y="0"
             width="100%"
             height="100%" />
        </g>
      </g>
    </g>
    <g
       id="axes_5"
       style="stroke-linecap:butt;stroke-linejoin:round">
      <g
         id="LineCollection_5"
         style="stroke-linecap:butt;stroke-linejoin:round">
        <path
           clip-path="url(#p0e7d83bd0b)"
           d="m 821.69662,213.06504 -2.54736,-0.26794 -2.54736,-0.44835 -2.54736,-0.71377 -1.27368,-0.50365 -1.35972,-0.67351 -1.87275,-1.27369 -1.35644,-1.27367 -1.0259,-1.27369 -0.80308,-1.27368 -1.12768,-2.54736 -0.71377,-2.54736 -0.44835,-2.54736 -0.35386,-3.82104 -0.15337,-5.09473 -0.0106,-12.7368 0.16401,-6.36841 0.35386,-3.82104 0.44835,-2.54736 0.71377,-2.54736 0.50365,-1.27368 0.67351,-1.35971 1.27368,-1.87276 1.27368,-1.35644 1.27368,-1.0259 1.27368,-0.80307 2.54737,-1.12769 2.54736,-0.71377 2.54736,-0.44835 3.82104,-0.35386 5.09472,-0.15337 12.73681,-0.0106 6.36841,0.16401 3.82104,0.35386 2.54736,0.44835 2.54736,0.71377 1.27368,0.50365 1.35971,0.67351 1.87275,1.27368 1.35644,1.27368 1.02591,1.27369 0.80307,1.27368 1.12768,2.54736 0.71377,2.54736 0.44836,2.54736 0.35386,3.82104 0.15337,5.09473 0.0106,12.7368 -0.164,6.36841 -0.35386,3.82104 -0.44836,2.54736 -0.71377,2.54736 -0.50364,1.27368 -0.67352,1.35971 -1.27368,1.87276 -1.27368,1.35643 -1.27368,1.02591 -1.27368,0.80307 -2.54736,1.12769 -2.54736,0.71377 -2.54736,0.44835 -3.82104,0.35386 -5.09473,0.15337 -12.73681,0.0106 -6.3684,-0.16401 -1.27368,-0.0859 v 0"
           style="fill:none;stroke:#000000;stroke-width:1.5;stroke-linecap:butt;stroke-linejoin:round"
           id="path106"
           inkscape:connector-curvature="0" />
      </g>
      <g
         id="text_5"
         style="stroke-linecap:butt;stroke-linejoin:round">
        <!-- p=4 -->
        <defs
           id="defs110">
          <path
             d="M 37.796875,64.3125 12.890625,25.390625 h 24.90625 z m -2.59375,8.59375 h 12.40625 V 25.390625 h 10.40625 V 17.1875 H 47.609375 V 0 h -9.8125 V 17.1875 H 4.890625 v 9.515625 z"
             id="DejaVuSans-34"
             inkscape:connector-curvature="0"
             style="stroke-linecap:butt;stroke-linejoin:round" />
        </defs>
        <g
           transform="matrix(0.12,0,0,-0.12,822.41589,112.7528)"
           id="g118"
           style="stroke-linecap:butt;stroke-linejoin:round">
          <use
             xlink:href="#DejaVuSans-70"
             id="use112"
             style="stroke-linecap:butt;stroke-linejoin:round"
             x="0"
             y="0"
             width="100%"
             height="100%" />
          <use
             x="63.476562"
             xlink:href="#DejaVuSans-3d"
             id="use114"
             style="stroke-linecap:butt;stroke-linejoin:round"
             y="0"
             width="100%"
             height="100%" />
          <use
             x="147.26562"
             xlink:href="#DejaVuSans-34"
             id="use116"
             style="stroke-linecap:butt;stroke-linejoin:round"
             y="0"
             width="100%"
             height="100%" />
        </g>
      </g>
    </g>
    <g
       id="axes_6"
       style="stroke-linecap:butt;stroke-linejoin:round">
      <g
         id="LineCollection_6"
         style="stroke-linecap:butt;stroke-linejoin:round">
        <path
           clip-path="url(#p4664a06a7d)"
           d="m 969.18885,213.0131 -2.54736,-0.32368 -2.54737,-0.57228 -1.27368,-0.42583 -1.27368,-0.57675 -1.27368,-0.76024 -1.38608,-1.17019 -1.16128,-1.42782 -0.65674,-1.11954 -0.61694,-1.38522 -0.71084,-2.43582 -0.43288,-2.54736 -0.31038,-3.82104 -0.12183,-5.09473 -0.008,-17.83153 0.1301,-6.3684 0.31038,-3.82104 0.43288,-2.54736 0.75103,-2.54736 0.57675,-1.27368 0.76024,-1.27369 1.17018,-1.38608 1.42782,-1.16128 1.11954,-0.65674 1.38523,-0.61694 2.43581,-0.71083 2.54737,-0.43289 3.82104,-0.31038 5.09472,-0.12183 17.83153,-0.008 6.36847,0.13009 3.821,0.31038 2.5474,0.43289 2.5473,0.75102 1.2737,0.57675 1.2737,0.76024 1.3861,1.17018 1.1613,1.42783 0.6567,1.11954 0.6169,1.38522 0.7109,2.43582 0.4329,2.54736 0.3103,3.82104 0.1219,5.09472 0.01,17.83153 -0.1301,6.36841 -0.3103,3.82104 -0.4329,2.54736 -0.7511,2.54736 -0.5767,1.27368 -0.7602,1.27369 -1.1702,1.38608 -1.4279,1.16128 -1.1195,0.65674 -1.3852,0.61694 -2.4358,0.71083 -2.5474,0.43289 -3.821,0.31037 -5.09479,0.12183 -17.83153,0.008 -6.3684,-0.1301 -2.54736,-0.17249 v 0"
           style="fill:none;stroke:#000000;stroke-width:1.5;stroke-linecap:butt;stroke-linejoin:round"
           id="path122"
           inkscape:connector-curvature="0" />
      </g>
      <g
         id="text_6"
         style="stroke-linecap:butt;stroke-linejoin:round">
        <!-- p=5 -->
        <g
           transform="matrix(0.12,0,0,-0.12,973.72916,112.7528)"
           id="g131"
           style="stroke-linecap:butt;stroke-linejoin:round">
          <use
             xlink:href="#DejaVuSans-70"
             id="use125"
             style="stroke-linecap:butt;stroke-linejoin:round"
             x="0"
             y="0"
             width="100%"
             height="100%" />
          <use
             x="63.476562"
             xlink:href="#DejaVuSans-3d"
             id="use127"
             style="stroke-linecap:butt;stroke-linejoin:round"
             y="0"
             width="100%"
             height="100%" />
          <use
             x="147.26562"
             xlink:href="#DejaVuSans-35"
             id="use129"
             style="stroke-linecap:butt;stroke-linejoin:round"
             y="0"
             width="100%"
             height="100%" />
        </g>
      </g>
    </g>
    <g
       id="axes_7"
       style="stroke-linecap:butt;stroke-linejoin:round">
      <g
         id="LineCollection_7"
         style="stroke-linecap:butt;stroke-linejoin:round">
        <path
           clip-path="url(#pbdd3b3c533)"
           d="m 1106.4916,213.3236 -0.3184,-0.31842 v -62.41036 l 0.3184,-0.31842 h 62.4104 l 0.3184,0.31842 v 62.41036 l -0.3184,0.31842 h -62.4104 v 0"
           style="fill:none;stroke:#000000;stroke-width:1.5;stroke-linecap:butt;stroke-linejoin:round"
           id="path135"
           inkscape:connector-curvature="0" />
      </g>
      <g
         id="text_7"
         style="stroke-linecap:butt;stroke-linejoin:round">
        <!-- sup, p=$\infty$ -->
        <defs
           id="defs141">
          <path
             d="m 44.28125,53.078125 v -8.5 Q 40.484375,46.53125 36.375,47.5 q -4.09375,0.984375 -8.5,0.984375 -6.6875,0 -10.03125,-2.046875 Q 14.5,44.390625 14.5,40.28125 q 0,-3.125 2.390625,-4.90625 2.390625,-1.78125 9.625,-3.390625 l 3.078125,-0.6875 Q 39.15625,29.25 43.1875,25.515625 47.21875,21.78125 47.21875,15.09375 q 0,-7.625 -6.03125,-12.078125 -6.03125,-4.4375 -16.578125,-4.4375 -4.390625,0 -9.15625,0.859375 Q 10.6875,0.296875 5.421875,2 v 9.28125 q 4.984375,-2.59375 9.8125,-3.890625 4.828125,-1.28125 9.578125,-1.28125 6.34375,0 9.75,2.171875 3.421875,2.171875 3.421875,6.125 0,3.65625 -2.46875,5.609375 -2.453125,1.953125 -10.8125,3.765625 l -3.125,0.734375 q -8.34375,1.75 -12.0625,5.390625 -3.703125,3.640625 -3.703125,9.984375 0,7.71875 5.46875,11.90625 Q 16.75,56 26.8125,56 q 4.96875,0 9.359375,-0.734375 4.40625,-0.71875 8.109375,-2.1875 z"
             id="DejaVuSans-73"
             inkscape:connector-curvature="0"
             style="stroke-linecap:butt;stroke-linejoin:round" />
          <path
             d="M 8.5,21.578125 V 54.6875 h 8.984375 V 21.921875 q 0,-7.765625 3.015625,-11.65625 3.03125,-3.875 9.09375,-3.875 7.265625,0 11.484375,4.640625 4.234375,4.640625 4.234375,12.65625 v 31 h 8.984375 V 0 H 45.3125 V 8.40625 Q 42.046875,3.421875 37.71875,1 33.40625,-1.421875 27.6875,-1.421875 18.265625,-1.421875 13.375,4.4375 8.5,10.296875 8.5,21.578125 Z M 31.109375,56 Z"
             id="DejaVuSans-75"
             inkscape:connector-curvature="0"
             style="stroke-linecap:butt;stroke-linejoin:round" />
          <path
             d="m 45.5625,17.046875 q -1.515625,1.75 -3.90625,5.859375 Q 38.375,17.046875 35.5,14.453125 q -3.609375,-3.125 -9.234375,-3.125 -6.59375,0 -10.9375,4.9375 Q 10.75,21.4375 10.75,29.984375 10.75,38.1875 15.328125,43.75 19.4375,48.6875 26.375,48.6875 q 3.5625,0 6.1875,-1.46875 3.078125,-1.609375 5.1875,-4.390625 1.953125,-2.5 3.90625,-5.859375 3.265625,5.859375 6.140625,8.4375 3.625,3.125 9.234375,3.125 6.59375,0 10.9375,-4.921875 4.59375,-5.1875 4.59375,-13.71875 0,-8.203125 -4.59375,-13.78125 Q 63.875,11.1875 56.9375,11.1875 q -3.5625,0 -6.203125,1.453125 -2.640625,1.328125 -5.171875,4.40625 z M 25.734375,17.71875 q 8.0625,0 12.890625,11.71875 -6.203125,12.796875 -12.890625,12.796875 -4.890625,0 -7.375,-3.515625 -2.6875,-3.75 -2.6875,-8.734375 0,-5.46875 2.6875,-8.84375 2.734375,-3.421875 7.375,-3.421875 z M 57.5625,42.140625 q -7.265625,0 -12.890625,-11.71875 Q 50.828125,17.625 57.5625,17.625 q 4.890625,0 7.375,3.515625 2.6875,3.765625 2.6875,8.75 0,5.46875 -2.6875,8.828125 -2.734375,3.421875 -7.375,3.421875 z"
             id="DejaVuSans-221e"
             inkscape:connector-curvature="0"
             style="stroke-linecap:butt;stroke-linejoin:round" />
        </defs>
        <g
           transform="matrix(0.12,0,0,-0.12,1109.2568,112.7528)"
           id="g159"
           style="stroke-linecap:butt;stroke-linejoin:round">
          <use
             xlink:href="#DejaVuSans-73"
             id="use143"
             style="stroke-linecap:butt;stroke-linejoin:round"
             x="0"
             y="0"
             width="100%"
             height="100%" />
          <use
             transform="translate(52.099609)"
             xlink:href="#DejaVuSans-75"
             id="use145"
             style="stroke-linecap:butt;stroke-linejoin:round"
             x="0"
             y="0"
             width="100%"
             height="100%" />
          <use
             transform="translate(115.47852)"
             xlink:href="#DejaVuSans-70"
             id="use147"
             style="stroke-linecap:butt;stroke-linejoin:round"
             x="0"
             y="0"
             width="100%"
             height="100%" />
          <use
             transform="translate(178.95508)"
             xlink:href="#DejaVuSans-2c"
             id="use149"
             style="stroke-linecap:butt;stroke-linejoin:round"
             x="0"
             y="0"
             width="100%"
             height="100%" />
          <use
             transform="translate(210.74219)"
             xlink:href="#DejaVuSans-20"
             id="use151"
             style="stroke-linecap:butt;stroke-linejoin:round"
             x="0"
             y="0"
             width="100%"
             height="100%" />
          <use
             transform="translate(242.5293)"
             xlink:href="#DejaVuSans-70"
             id="use153"
             style="stroke-linecap:butt;stroke-linejoin:round"
             x="0"
             y="0"
             width="100%"
             height="100%" />
          <use
             transform="translate(306.00586)"
             xlink:href="#DejaVuSans-3d"
             id="use155"
             style="stroke-linecap:butt;stroke-linejoin:round"
             x="0"
             y="0"
             width="100%"
             height="100%" />
          <use
             transform="translate(389.79492)"
             xlink:href="#DejaVuSans-221e"
             id="use157"
             style="stroke-linecap:butt;stroke-linejoin:round"
             x="0"
             y="0"
             width="100%"
             height="100%" />
        </g>
      </g>
    </g>
  </g>
  <defs
     id="defs185">
    <clipPath
       id="pcb9c260091"
       style="stroke-linecap:butt;stroke-linejoin:round">
      <rect
         height="126.09439"
         width="126.09439"
         x="166.77"
         y="118.75281"
         id="rect164"
         style="stroke-linecap:butt;stroke-linejoin:round" />
    </clipPath>
    <clipPath
       id="p6c392ce141"
       style="stroke-linecap:butt;stroke-linejoin:round">
      <rect
         height="126.09439"
         width="126.09439"
         x="318.08328"
         y="118.75281"
         id="rect167"
         style="stroke-linecap:butt;stroke-linejoin:round" />
    </clipPath>
    <clipPath
       id="pcd0705cfb1"
       style="stroke-linecap:butt;stroke-linejoin:round">
      <rect
         height="126.09439"
         width="126.09439"
         x="469.39655"
         y="118.75281"
         id="rect170"
         style="stroke-linecap:butt;stroke-linejoin:round" />
    </clipPath>
    <clipPath
       id="p1a009de03c"
       style="stroke-linecap:butt;stroke-linejoin:round">
      <rect
         height="126.09439"
         width="126.09439"
         x="620.70978"
         y="118.75281"
         id="rect173"
         style="stroke-linecap:butt;stroke-linejoin:round" />
    </clipPath>
    <clipPath
       id="p0e7d83bd0b"
       style="stroke-linecap:butt;stroke-linejoin:round">
      <rect
         height="126.09439"
         width="126.09439"
         x="772.02307"
         y="118.75281"
         id="rect176"
         style="stroke-linecap:butt;stroke-linejoin:round" />
    </clipPath>
    <clipPath
       id="p4664a06a7d"
       style="stroke-linecap:butt;stroke-linejoin:round">
      <rect
         height="126.09439"
         width="126.09439"
         x="923.33636"
         y="118.75281"
         id="rect179"
         style="stroke-linecap:butt;stroke-linejoin:round" />
    </clipPath>
    <clipPath
       id="pbdd3b3c533"
       style="stroke-linecap:butt;stroke-linejoin:round">
      <rect
         height="126.09439"
         width="126.09439"
         x="1074.6497"
         y="118.75281"
         id="rect182"
         style="stroke-linecap:butt;stroke-linejoin:round" />
    </clipPath>
  </defs>
</svg>
